<?xml version="1.0" encoding="UTF-8"?>
<svg version="1.1" xmlns="http://www.w3.org/2000/svg" width="2892" height="2563">
<path d="M0 0 C8.70724722 6.86135939 15.73053849 14.87400246 21.92578125 24.01953125 C22.300979 24.57012207 22.67617676 25.12071289 23.06274414 25.68798828 C30.36727993 36.81796988 36.05435605 48.87349458 40.98828125 61.20703125 C41.39214554 62.20964493 41.39214554 62.20964493 41.8041687 63.23251343 C60.32473647 109.38257604 73.35328877 157.28925282 83.86328125 205.83203125 C84.05043701 206.69626709 84.23759277 207.56050293 84.43041992 208.45092773 C95.74654662 260.96505952 103.64503323 314.1534894 111.86579514 367.21765518 C121.31933123 428.2345871 130.81043587 489.21668004 145.42504883 549.26022339 C145.83208548 550.933175 146.23528885 552.60706551 146.6340332 554.28201294 C150.87742942 571.98969805 156.46883732 590.77547886 172.86328125 600.83203125 C182.00985096 605.66096557 192.02392705 606.26356101 201.86328125 603.26953125 C215.1353344 598.34630531 223.70861788 590.50271216 229.6796875 577.71875 C235.10452752 564.48786956 237.52268579 550.87356696 239.86328125 536.83203125 C240.65152752 532.18659236 241.44507861 527.54207087 242.23944092 522.89767456 C242.62052561 520.66458049 242.99905592 518.43106264 243.37744141 516.19750977 C244.75459636 508.09878914 246.18721519 500.01389982 247.7109375 491.94140625 C262.84269508 411.57678275 270.89228623 330.2588032 279.35637486 248.98898315 C285.82359233 186.89272845 292.38963403 124.82674514 302.17578125 63.14453125 C302.35151169 62.01674759 302.35151169 62.01674759 302.53079224 60.86618042 C305.6791593 40.81879954 305.6791593 40.81879954 312.86328125 34.83203125 C319.29424457 30.54472237 324.69483653 30.01217127 332.16015625 31.48046875 C352.12632986 36.40882806 367.99773415 45.57274626 382.86328125 59.83203125 C383.68441406 60.59 384.50554688 61.34796875 385.3515625 62.12890625 C411.32053689 86.84587721 424.40486167 125.09350083 425.97644043 160.3722229 C426.04367577 163.16509266 426.0797133 165.95640562 426.1015625 168.75 C426.11638924 170.3061351 426.11638924 170.3061351 426.1315155 171.89370728 C426.31747952 196.57885266 425.63233626 220.7018503 422.23370361 245.15447998 C421.83654353 248.02530148 421.45066773 250.89750948 421.06591797 253.77001953 C413.75313063 308.04989736 403.83562084 361.88002196 393.80078125 415.70703125 C375.36831544 514.21710471 375.36831544 514.21710471 363.06903076 613.64538574 C362.86233937 615.84204131 362.6404549 618.03668829 362.41455078 620.23144531 C359.92732272 644.67487621 359.54803028 669.1091039 359.49491882 693.65742111 C359.48842349 696.09123482 359.47698658 698.52498133 359.46447754 700.95877075 C359.38610901 718.55387404 359.79681194 736.02132213 361.2421875 753.5625 C361.30336887 754.30728418 361.36455025 755.05206837 361.4275856 755.81942177 C367.61090042 832.19457071 367.61090042 832.19457071 405.86328125 895.83203125 C419.41222239 907.26582105 435.90297218 914.74987541 453.86328125 913.83203125 C456.51710359 913.3754019 459.01968473 912.87795541 461.61328125 912.20703125 C462.30647461 912.02809326 462.99966797 911.84915527 463.71386719 911.66479492 C488.30338546 904.94490697 506.8753297 884.08813594 522.3671875 864.91796875 C524.17526281 862.68263308 525.99440888 860.4601492 527.828125 858.24609375 C535.59974567 848.82902762 542.91208878 839.1327114 550.09277344 829.25976562 C552.43661763 826.04586785 554.80147364 822.8477362 557.16650391 819.64941406 C565.61323566 808.22299981 573.93264974 796.70619804 582.21484375 785.16015625 C587.85060043 777.31381551 593.54073134 769.5316438 599.47265625 761.90625 C601.10034648 759.81312548 602.71587696 757.71509821 604.31640625 755.6015625 C609.42552716 748.86754394 614.73060535 742.35203083 620.23046875 735.93359375 C622.56831776 733.19910033 624.81260373 730.39890105 627.05078125 727.58203125 C638.906506 713.02311612 652.42919304 698.84081589 666.86328125 686.83203125 C667.40549316 686.37602539 667.94770508 685.92001953 668.50634766 685.45019531 C682.73780448 673.51219104 697.69939152 662.9909125 713.86328125 653.83203125 C714.55695801 653.43661133 715.25063477 653.04119141 715.96533203 652.63378906 C735.73256608 641.48349511 756.83007513 633.23727648 778.86328125 627.83203125 C779.53568848 627.65559082 780.2080957 627.47915039 780.90087891 627.29736328 C799.0287334 622.64434746 826.16183956 621.3600171 843.86328125 627.83203125 C848.48111564 631.06770004 848.48111564 631.06770004 849.86328125 633.83203125 C850.2143098 639.18521663 850.38296124 642.54242126 846.86328125 646.83203125 C845.03945245 648.47302007 843.16756236 650.05005123 841.29296875 651.6328125 C836.66799709 655.81908106 832.57558835 660.52716165 828.39355469 665.14892578 C826.92811108 666.76072672 825.44974981 668.35925826 823.96484375 669.953125 C817.99458209 676.37162319 812.34035107 682.98569398 806.86328125 689.83203125 C805.95252106 690.95108939 805.04102649 692.06955013 804.12890625 693.1875 C785.43992363 716.18715278 768.35025616 740.57340414 752.86328125 765.83203125 C752.2280957 766.86424805 751.59291016 767.89646484 750.93847656 768.95996094 C730.44030929 802.31668567 711.35072445 836.42129592 693.05729675 871.02845764 C692.70452164 871.69582443 692.35174652 872.36319122 691.98828125 873.05078125 C691.63756058 873.71432114 691.2868399 874.37786102 690.92549133 875.06150818 C688.7382073 879.19444782 686.52873223 883.31456228 684.30078125 887.42578125 C673.61376812 907.15933603 663.4574752 927.15600718 653.28187561 947.1566925 C646.51632829 960.45108266 639.69135834 973.71484819 632.85351562 986.97216797 C631.54615607 989.50694693 630.24015662 992.04241796 628.93554688 994.57861328 C621.63459021 1008.7697916 614.21421679 1022.88029247 606.50292969 1036.85302734 C605.02621743 1039.53599979 603.55778588 1042.22334335 602.09263611 1044.91264343 C590.24469187 1066.65226551 577.80786312 1087.98564753 564.73828125 1109.01953125 C563.83323853 1110.47999878 563.83323853 1110.47999878 562.90991211 1111.9699707 C562.3350708 1112.88738037 561.76022949 1113.80479004 561.16796875 1114.75 C560.67280762 1115.54172607 560.17764648 1116.33345215 559.66748047 1117.14916992 C555.30892556 1123.63038235 550.52113793 1129.51635513 545.140625 1135.171875 C544.49794174 1135.85209213 543.85525848 1136.53230927 543.19309998 1137.23313904 C535.85356875 1144.96004217 528.33577178 1152.51030715 520.7902832 1160.03540039 C518.40002018 1162.4202338 516.01524367 1164.8104623 513.63085938 1167.20117188 C512.08495643 1168.74641497 510.53874382 1170.29134834 508.9921875 1171.8359375 C508.29307755 1172.53707169 507.59396759 1173.23820587 506.87367249 1173.96058655 C502.91475196 1177.90092937 498.85756569 1181.66866981 494.62237549 1185.31105042 C492.03738427 1187.54613368 489.55133277 1189.8778462 487.05078125 1192.20703125 C482.42547172 1196.48043096 477.66246224 1200.52086854 472.75390625 1204.46875 C470.11629301 1206.62517704 467.54084821 1208.83392029 464.97314453 1211.07202148 C457.95805557 1217.17789332 450.69973396 1222.87960556 443.27734375 1228.48046875 C440.30733506 1230.72345092 437.36762975 1232.99888359 434.44921875 1235.30859375 C425.37582747 1242.48443202 416.11777031 1249.2192313 406.51953125 1255.67578125 C402.76536953 1258.20345896 399.07494766 1260.80760171 395.40039062 1263.44921875 C386.85307458 1269.58738432 378.0368059 1275.12351135 369.01269531 1280.52929688 C366.34455659 1282.14642412 363.71366623 1283.8178643 361.08276367 1285.49462891 C350.2587408 1292.37621866 339.08325211 1298.62376573 327.86328125 1304.83203125 C326.86039063 1305.38906738 325.8575 1305.94610352 324.82421875 1306.52001953 C311.45556579 1313.92021857 297.90883809 1320.8887631 284.17578125 1327.58203125 C283.10266693 1328.10780258 283.10266693 1328.10780258 282.00787354 1328.64419556 C279.95893864 1329.64579925 277.90608912 1330.63883163 275.8515625 1331.62890625 C274.67118408 1332.19963867 273.49080566 1332.77037109 272.2746582 1333.35839844 C264.84267263 1336.56883749 258.75654257 1337.66188195 250.86328125 1335.83203125 C243.70923317 1332.89937891 239.08963927 1328.86999362 235.86328125 1321.83203125 C233.57347661 1314.96261734 233.84377535 1307.07218877 236.80078125 1300.45703125 C239.82323333 1295.20795481 243.9136761 1292.17781086 248.86328125 1288.83203125 C277.38844153 1268.67702749 295.45986317 1242.41721855 301.46850586 1207.86230469 C303.66481692 1191.00354598 302.8395776 1173.11462544 297.86328125 1156.83203125 C297.54979736 1155.79997559 297.54979736 1155.79997559 297.22998047 1154.74707031 C287.76340989 1124.7802334 266.4521237 1100.09569016 238.70068359 1085.54980469 C231.06061051 1081.76039166 223.0461332 1079.16917659 214.86328125 1076.83203125 C213.72246094 1076.49042969 212.58164063 1076.14882812 211.40625 1075.796875 C194.1333838 1071.47363142 172.92663023 1071.75194656 155.86328125 1076.83203125 C154.05150391 1077.3425 154.05150391 1077.3425 152.203125 1077.86328125 C121.44689367 1087.27780501 97.29220266 1107.69211948 81.77197266 1135.80908203 C68.5349548 1160.72829342 63.68608743 1192.52328962 71.86328125 1219.83203125 C72.06195801 1220.5276416 72.26063477 1221.22325195 72.46533203 1221.93994141 C80.19157626 1248.6721677 96.29164867 1271.86096808 119.61328125 1287.39453125 C125.74215508 1291.51167075 129.22814512 1295.01671361 132.17578125 1301.89453125 C133.98397453 1312.2505473 133.8404155 1321.49807671 128.17578125 1330.51953125 C122.53296876 1336.16234374 116.69067947 1338.91961359 108.73828125 1339.16015625 C102.63498629 1339.09135253 98.2293721 1337.34813749 92.86328125 1334.58203125 C91.96536865 1334.13529053 91.06745605 1333.6885498 90.14233398 1333.22827148 C75.29334863 1325.67416445 61.62041671 1316.51965147 48.86328125 1305.83203125 C48.27659668 1305.34686035 47.68991211 1304.86168945 47.08544922 1304.36181641 C33.71881427 1293.26897983 20.7942648 1281.26488412 10.0390625 1267.5859375 C2.51119188 1258.05784274 -5.38080203 1248.72329359 -14.63671875 1240.83203125 C-19.58669648 1236.5808739 -24.1153209 1231.90458023 -28.68164062 1227.25 C-31.49810601 1224.39527542 -34.30316868 1221.62509961 -37.41015625 1219.0859375 C-39.6165579 1217.26202095 -41.34670896 1215.5964467 -43.13671875 1213.39453125 C-46.59852391 1209.32227385 -50.33911156 1205.58647818 -54.13671875 1201.83203125 C-58.31796389 1197.6849475 -62.45008242 1193.55619761 -66.25390625 1189.0546875 C-67.81990182 1187.20603297 -69.41043803 1185.38899666 -71.01953125 1183.578125 C-83.73278109 1169.2124594 -94.67035441 1153.88798464 -105.13671875 1137.83203125 C-106.05074085 1136.43877558 -106.96480247 1135.04554583 -107.87890625 1133.65234375 C-131.71470789 1097.18693169 -153.32534223 1059.28283285 -175.03515625 1021.53076172 C-183.63898376 1006.57283201 -192.31185689 991.66071556 -201.13671875 976.83203125 C-201.6270459 976.00574219 -202.11737305 975.17945313 -202.62255859 974.328125 C-210.91450645 960.36157419 -219.49723331 946.58561939 -228.13671875 932.83203125 C-236.10699442 920.13476901 -244.03579061 907.41678163 -251.80810547 894.59716797 C-254.82021801 889.63075311 -257.84607975 884.67376781 -260.90234375 879.734375 C-267.87957384 868.457061 -274.75272794 857.13529601 -281.4828186 845.70925903 C-288.07182872 834.52501814 -294.8119003 823.49853627 -301.98095703 812.671875 C-305.80298446 806.89962017 -309.49395135 801.06969221 -313.07421875 795.14453125 C-319.77197708 784.09189676 -326.82172995 773.75637272 -335.13671875 763.83203125 C-337.27063658 761.23510011 -339.39227967 758.62828633 -341.51171875 756.01953125 C-342.346427 754.99218872 -342.346427 754.99218872 -343.19799805 753.9440918 C-348.09898123 747.89990179 -352.93877876 741.81078453 -357.71240234 735.66552734 C-358.69025052 734.40676152 -359.66983674 733.14934453 -360.65087891 731.89306641 C-372.87506777 716.21976041 -384.35623657 700.09221278 -394.72314453 683.12890625 C-396.35443422 680.47827181 -398.00785486 677.84216725 -399.6640625 675.20703125 C-405.57584324 665.79981998 -411.45048973 656.37760003 -417.13671875 646.83203125 C-430.58440323 624.30106358 -444.88771126 602.38622923 -459.62890625 580.6875 C-478.06244549 553.47961892 -491.99132957 526.72009051 -487.62890625 492.89453125 C-484.93384947 479.76000167 -478.1648501 468.02727903 -467.32421875 459.95703125 C-455.43548581 452.36045416 -442.65413798 450.71602667 -428.85546875 453.4921875 C-426.11599226 454.4014103 -423.68572198 455.48065494 -421.13671875 456.83203125 C-420.26273438 457.28320312 -419.38875 457.734375 -418.48828125 458.19921875 C-398.23602929 469.86312317 -386.02278426 491.53651501 -374.13671875 510.83203125 C-373.5319873 511.81107422 -372.92725586 512.79011719 -372.30419922 513.79882812 C-367.5680274 521.46817674 -362.85099827 529.14921319 -358.13671875 536.83203125 C-349.7369013 550.51576748 -341.31024698 564.18061201 -332.78540039 577.78686523 C-326.79921596 587.35045699 -320.8907094 596.96118518 -314.984375 606.57421875 C-309.91460239 614.82475281 -304.81469377 623.05654431 -299.71337891 631.28759766 C-297.0196332 635.63479768 -294.32831958 639.98350302 -291.63671875 644.33203125 C-290.55339662 646.08203818 -289.47006329 647.83203819 -288.38671875 649.58203125 C-281.88671875 660.08203125 -281.88671875 660.08203125 -280.26147461 662.70751953 C-279.17906716 664.45596132 -278.09654778 666.20433382 -277.01391602 667.95263672 C-274.29049058 672.35091351 -271.56907435 676.75041038 -268.8515625 681.15234375 C-266.14895446 685.52950736 -263.43779488 689.90129272 -260.72314453 694.27099609 C-259.15425961 696.80371428 -257.59637839 699.34296916 -256.0390625 701.8828125 C-243.61685886 722.01658626 -229.42471332 743.57398251 -205.13671875 749.83203125 C-193.04588047 752.22054835 -181.19251866 749.87933544 -170.65625 743.5390625 C-155.40790889 733.20801589 -146.87736597 717.00610029 -143.10546875 699.26171875 C-127.60219515 617.35105662 -174.09778868 518.8292593 -233.74749756 384.91172791 C-279.84894731 283.79126996 -279.84894731 283.79126996 -290.13671875 245.83203125 C-290.66652344 243.93517578 -290.66652344 243.93517578 -291.20703125 242 C-295.83659427 222.75186188 -294.7766098 202.39018381 -284.625 185.16015625 C-278.69406794 175.88237277 -270.23909833 169.62068312 -259.65625 166.49609375 C-242.75935429 163.30800022 -226.50840506 166.45628096 -212.22241211 175.98364258 C-188.36642835 192.97390765 -177.05454757 220.03879772 -166.01171875 246.14453125 C-165.07759344 248.34110312 -164.14318254 250.53755356 -163.20849609 252.73388672 C-160.50550742 259.09472898 -157.81839569 265.46217959 -155.13671875 271.83203125 C-154.77779541 272.68347717 -154.41887207 273.5349231 -154.04907227 274.41217041 C-115.89405514 364.96887803 -83.71650038 458.66885028 -53.50952148 572.33666992 C-51.01121873 582.00162913 -48.38724705 591.6142587 -45.515625 601.17578125 C-45.23745941 602.11294479 -44.95929382 603.05010834 -44.67269897 604.01567078 C-38.92066389 622.86281642 -29.26579154 638.50874197 -11.56640625 648.24609375 C-1.74180692 652.63715261 7.72304417 652.73030449 17.8203125 649.18359375 C28.98470818 644.22482494 35.31213553 635.18533394 39.73828125 624.08203125 C47.5654153 603.03688938 41.55448064 579.9133498 36.86328125 558.83203125 C36.42909579 556.86460615 35.99501948 554.89715697 35.56103516 552.9296875 C17.08655612 469.44680395 -3.8755375 386.47039594 -81.9140625 126.375 C-93.49262235 91.29558196 -93.49262235 91.29558196 -96.13671875 76.83203125 C-96.32282715 75.8255957 -96.32282715 75.8255957 -96.51269531 74.79882812 C-99.96951336 55.25191826 -99.2305011 34.77248229 -90.13671875 16.83203125 C-89.62109375 15.81367187 -89.10546875 14.7953125 -88.57421875 13.74609375 C-81.50817561 0.75896816 -71.45143726 -8.22626415 -57.2421875 -12.625 C-37.04359497 -17.83391347 -16.77352142 -11.59315615 0 0 Z " fill="#F19F34" transform="translate(1279.13671875,62.16796875)"/>
<path d="M0 0 C2.71787719 2.18653411 5.31902977 4.4534973 7.90234375 6.796875 C8.77632812 7.55226563 9.6503125 8.30765625 10.55078125 9.0859375 C15.79605116 13.66964183 20.43743663 18.46379149 24.90234375 23.796875 C25.82789316 24.87371615 26.7551214 25.94911555 27.68359375 27.0234375 C32.27677148 32.34398494 36.83038561 37.67679798 41.21484375 43.171875 C46.27760016 49.41501906 51.82066806 55.19090236 57.34375 61.0234375 C60.05510751 63.88797506 62.71891397 66.78645782 65.33984375 69.734375 C71.37210276 76.4923193 77.63711663 83.03517306 83.85351562 89.62304688 C106.31193964 113.45167025 106.31193964 113.45167025 115.3984375 124.703125 C117.23044169 126.96669336 119.07561232 129.21444745 120.9375 131.453125 C128.19829675 140.22129295 134.88589175 149.2563656 141.37109375 158.60839844 C144.00325936 162.3703137 146.70504432 166.08153026 149.40234375 169.796875 C155.13933919 177.71541263 160.79370718 185.68945676 166.41845703 193.68798828 C168.90883161 197.22728667 171.40594167 200.76182684 173.90234375 204.296875 C174.9023757 205.71351912 175.90237571 207.13018578 176.90234375 208.546875 C177.39734375 209.248125 177.89234375 209.949375 178.40234375 210.671875 C206.90234375 251.046875 206.90234375 251.046875 208.40209961 253.17163086 C209.40278563 254.58920154 210.40359958 256.00668192 211.40454102 257.42407227 C213.89509826 260.95118072 216.38345967 264.47979717 218.8671875 268.01171875 C224.58677253 276.13969859 230.35887305 284.22674766 236.18725586 292.27709961 C239.44176495 296.77235066 242.68174966 301.27727293 245.90234375 305.796875 C247.12947511 307.5157539 248.3570894 309.23428649 249.58496094 310.95263672 C250.50289598 312.23767774 251.42016272 313.52319629 252.33691406 314.80908203 C260.72056239 326.55540249 269.38607158 338.06479239 278.16357422 349.51904297 C280.36911287 352.40835434 282.54448057 355.31855613 284.71484375 358.234375 C293.31626256 369.73003303 302.35216302 380.88020379 311.43457031 391.99707031 C312.71730507 393.56997794 313.99393788 395.14785784 315.26953125 396.7265625 C324.29512436 407.86804557 333.74467481 418.63258834 343.48046875 429.15625 C345.53871001 431.40039692 347.54442719 433.67400432 349.52734375 435.984375 C352.74986758 439.708009 356.2264002 443.13671593 359.73046875 446.59375 C361.6300101 448.52062288 363.40257319 450.48526414 365.15234375 452.546875 C372.14370188 460.67901418 379.92096697 468.27977748 388.1015625 475.20703125 C390.01852755 476.89944941 391.76080163 478.69851409 393.52734375 480.546875 C397.52806672 484.6102316 401.90570702 488.0376751 406.40991211 491.51416016 C411.12054636 495.15564766 415.68565631 498.93638809 420.20874023 502.80737305 C423.6417205 505.74250028 427.12683447 508.59754489 430.65234375 511.421875 C434.98265396 514.94143047 438.91326365 518.70094093 442.8046875 522.6953125 C444.6893744 524.58350906 446.61851471 526.3230032 448.65234375 528.046875 C457.39585619 535.56384261 465.48595006 543.9787014 472.90234375 552.796875 C474.07603516 554.13685547 474.07603516 554.13685547 475.2734375 555.50390625 C511.45251928 597.02793032 538.52022329 648.90232023 538.21484375 704.984375 C538.2126886 705.70298706 538.21053345 706.42159912 538.20831299 707.1619873 C537.97055444 756.79442796 516.87946503 795.64176418 484.12890625 831.35546875 C482.21101168 833.45842333 480.3285833 835.58356656 478.46484375 837.734375 C468.91788666 848.67627457 458.83749699 859.02013964 448.55834961 869.27124023 C446.20505075 871.61914556 443.85718985 873.97239468 441.50976562 876.32617188 C439.99120617 877.84407097 438.47233679 879.36166006 436.953125 880.87890625 C436.26334061 881.57071487 435.57355621 882.2625235 434.86286926 882.97529602 C430.90740796 886.91199728 426.850164 890.67372281 422.62145996 894.31587219 C420.40495859 896.22536774 418.24901439 898.19799221 416.08984375 900.171875 C411.77108718 904.06928947 407.32472324 907.76987855 402.80078125 911.42578125 C400.27306323 913.49360448 397.7884369 915.60308599 395.31445312 917.73461914 C388.10764649 923.92838107 380.59371316 929.63434916 372.95068359 935.27636719 C370.92058293 936.78333583 368.90370828 938.30632866 366.890625 939.8359375 C358.36758664 946.30539503 349.7038649 952.51035224 340.83300781 958.49414062 C338.98532989 959.74087929 337.1428562 960.99500434 335.30078125 962.25 C317.47747627 974.32975227 298.98097146 985.38857808 280.20996094 995.92382812 C278.05968619 997.14149183 275.91901133 998.37632222 273.79003906 999.63085938 C253.7928651 1011.40888288 233.09064166 1017.37161719 210.74102783 1023.07086182 C207.94731851 1023.78537239 205.15672508 1024.51099833 202.36669922 1025.23974609 C160.95993005 1036.0190001 118.98522553 1044.38902094 77.09283733 1053.02686977 C-22.01980832 1073.31878306 -22.01980832 1073.31878306 -119.19836426 1101.16986084 C-121.01615863 1101.76997015 -122.83567849 1102.36484521 -124.65527344 1102.95947266 C-152.99839165 1112.26353419 -181.2804858 1123.4987757 -207.26171875 1138.25390625 C-208.25437744 1138.81529297 -209.24703613 1139.37667969 -210.26977539 1139.95507812 C-212.14026597 1141.02564525 -213.99981556 1142.11565926 -215.84545898 1143.22851562 C-221.49063773 1146.48319773 -224.71777112 1147.49582784 -231.09765625 1145.796875 C-233.92236079 1143.67834659 -234.89222299 1142.1144814 -235.4375 1138.6171875 C-236.83675074 1101.78890805 -213.66403606 1067.82630358 -189.82568359 1042.03759766 C-181.3746737 1032.95860758 -172.86615995 1024.47296055 -163.09765625 1016.796875 C-162.23720703 1016.11383301 -162.23720703 1016.11383301 -161.359375 1015.41699219 C-143.68115508 1001.45801233 -124.16055567 990.90910505 -104.09765625 980.796875 C-103.35386719 980.41499023 -102.61007812 980.03310547 -101.84375 979.63964844 C-76.06568883 966.44947228 -48.13650666 957.13992807 -21.03515625 947.109375 C-2.88007141 940.38950711 15.15258732 933.53535347 32.90234375 925.796875 C33.91973633 925.35553223 34.93712891 924.91418945 35.98535156 924.45947266 C58.92258683 914.45243358 85.59640938 902.80507015 95.97265625 878.265625 C101.30712227 862.72834534 99.40082315 847.29230445 92.27734375 832.671875 C71.21498155 791.55568842 15.70075065 773.19892416 -25.09765625 758.796875 C-25.73344604 758.57213501 -26.36923584 758.34739502 -27.02429199 758.11584473 C-65.40319151 744.61238062 -105.04172371 735.66290658 -145.09765625 728.796875 C-145.89675415 728.6595697 -146.69585205 728.5222644 -147.51916504 728.38079834 C-202.10035407 719.05533389 -257.35329591 714.51466812 -312.46588993 709.60448456 C-532.91891389 689.96347685 -532.91891389 689.96347685 -593.14453125 637.2265625 C-596.36033035 633.22610841 -599.29516759 629.09537814 -602.09765625 624.796875 C-602.86722656 623.64638672 -602.86722656 623.64638672 -603.65234375 622.47265625 C-614.72245847 605.12182878 -620.64254692 582.91401206 -617.41015625 562.421875 C-616.14958115 556.82030538 -613.25991504 554.43317895 -608.78515625 551.046875 C-602.20760288 547.98754785 -595.28365652 548.83276741 -588.296875 549.66015625 C-587.34045609 549.76672546 -586.38403717 549.87329468 -585.39863586 549.98309326 C-582.19254063 550.34588561 -578.98882643 550.72577888 -575.78515625 551.109375 C-574.64071045 551.24479706 -573.49626465 551.38021912 -572.31713867 551.51974487 C-518.89628556 557.87887051 -465.92528459 566.95818301 -412.90987778 576.00046539 C-351.10845527 586.56108966 -351.10845527 586.56108966 -289.09765625 595.796875 C-288.04185364 595.94239807 -286.98605103 596.08792114 -285.89825439 596.237854 C-256.63206523 600.24460533 -227.26746296 603.14053033 -197.85302734 605.79394531 C-195.89105659 605.97116371 -195.89105659 605.97116371 -193.88945007 606.15196228 C-191.35027768 606.38124624 -188.81106354 606.61006834 -186.27180481 606.83839417 C-179.65320034 607.44179595 -173.05511731 608.12159454 -166.4609375 608.94921875 C-160.04658152 609.73542196 -153.74653082 610.1489766 -147.28515625 610.109375 C-145.8163501 610.10200317 -145.8163501 610.10200317 -144.31787109 610.09448242 C-132.24232821 609.89861394 -121.7367242 607.50956138 -112.41015625 599.484375 C-104.84276295 590.68983684 -100.40404757 583.44731626 -100.8203125 571.4921875 C-101.95512455 560.46373239 -108.43527118 552.46586334 -116.76953125 545.53125 C-127.08203789 537.84877861 -138.82026371 531.92662297 -150.09765625 525.796875 C-151.67619385 524.93884277 -151.67619385 524.93884277 -153.28662109 524.06347656 C-176.01340375 511.74027899 -199.00464222 500.20705032 -222.49151611 489.39134216 C-226.91567369 487.35069129 -231.3259384 485.28185905 -235.73046875 483.19921875 C-250.37752791 476.27814155 -265.08647214 469.53506488 -279.90673828 462.99261475 C-296.92019689 455.47815318 -313.80068525 447.68500907 -330.66894531 439.85107422 C-334.64930899 438.00331634 -338.63441307 436.16611957 -342.62109375 434.33203125 C-378.46291951 417.82119371 -413.93537944 400.58761856 -448.09765625 380.796875 C-448.86464844 380.35537109 -449.63164062 379.91386719 -450.421875 379.45898438 C-481.13755053 361.76349343 -511.38747198 342.18261573 -538.09765625 318.796875 C-538.86464844 318.15234375 -539.63164063 317.5078125 -540.421875 316.84375 C-557.8760695 302.08248837 -569.05337448 282.53302742 -571.4140625 259.7421875 C-571.94976285 246.98906299 -568.44266565 233.59388412 -560.09765625 223.796875 C-548.51913135 212.47132628 -534.56311478 207.97572952 -518.59765625 207.421875 C-491.59658068 208.35434458 -468.91771716 222.80885083 -447.28515625 237.546875 C-443.7189775 239.96253772 -440.14917479 242.37279523 -436.578125 244.78125 C-435.70766541 245.36940491 -434.83720581 245.95755981 -433.94036865 246.5635376 C-426.45748828 251.60035622 -418.85603034 256.4329328 -411.20483398 261.20898438 C-407.41021801 263.58349574 -403.68527434 266.04613623 -399.97265625 268.546875 C-382.92685075 279.99867506 -365.48399611 290.87125788 -348.09765625 301.796875 C-347.20852539 302.35665039 -346.31939453 302.91642578 -345.40332031 303.49316406 C-330.84464104 312.65452834 -316.18746312 321.64443018 -301.4683075 330.54452515 C-297.28699568 333.07380876 -293.11264562 335.61430146 -288.94140625 338.16015625 C-275.05539919 346.6309109 -261.09299614 354.95407058 -247.015625 363.10400391 C-244.09098281 364.80074663 -241.17160762 366.50619653 -238.25390625 368.21484375 C-215.17154008 381.73076854 -191.94355876 394.96703998 -168.52929688 407.89941406 C-165.6348402 409.49984927 -162.74272239 411.10439578 -159.85197449 412.71151733 C-143.16595664 421.98617844 -126.3719055 431.04132692 -109.48587036 439.94656372 C-105.75136651 441.91745886 -102.02751452 443.90669758 -98.3125 445.9140625 C-80.60591776 455.45086412 -63.03199518 463.0720878 -42.54296875 459.109375 C-33.08406243 456.22115933 -26.49220332 451.52690232 -21.28515625 443.09375 C-16.8527142 434.52047393 -17.61185687 425.96049465 -20.078125 416.90625 C-27.60938669 393.9373446 -50.04652766 383.0127474 -69.640625 371.81713867 C-90.7994025 359.71500476 -111.47930986 346.79237911 -132.09765625 333.796875 C-133.00112793 333.22936523 -133.90459961 332.66185547 -134.83544922 332.07714844 C-171.09458032 309.28794631 -206.50457656 285.036622 -241.09765625 259.796875 C-241.85369141 259.24563965 -242.60972656 258.6944043 -243.38867188 258.12646484 C-253.50208906 250.74162546 -263.51559854 243.2341479 -273.4609375 235.62451172 C-278.09953531 232.07577762 -282.75398235 228.55221661 -287.44311523 225.07055664 C-294.17760654 220.06795884 -300.74899427 214.90426488 -307.23510742 209.58349609 C-311.5175913 206.07060734 -315.84843384 202.63204397 -320.22265625 199.234375 C-367.13297715 162.54962872 -367.13297715 162.54962872 -371.09765625 134.796875 C-372.16698311 121.5157774 -371.91910642 109.0963083 -363.84765625 97.921875 C-356.47679016 89.26775834 -347.38622938 84.30771938 -336.09765625 82.796875 C-303.01252885 80.24220061 -276.7885613 103.00998235 -252.22167969 122.14501953 C-250.03237244 123.84764629 -247.83528263 125.53981605 -245.63671875 127.23046875 C-235.91352888 134.72523126 -226.38179646 142.4250793 -216.93994141 150.27050781 C-214.42155041 152.35704114 -211.88488363 154.42081235 -209.34765625 156.484375 C-204.82921909 160.17443201 -200.37537885 163.93607518 -195.93041992 167.71386719 C-192.53754508 170.59291361 -189.11466315 173.42917336 -185.66015625 176.234375 C-181.41372658 179.68962127 -177.2448197 183.22399452 -173.09765625 186.796875 C-168.16371898 191.04521136 -163.18435008 195.22429413 -158.12890625 199.328125 C-155.78719395 201.23529275 -153.45505938 203.15212298 -151.12890625 205.078125 C-143.90345847 211.05860039 -136.65413199 216.99478251 -129.25537109 222.76000977 C-126.33787136 225.03383353 -123.43573035 227.32271881 -120.5625 229.65234375 C-72.6735546 268.46970114 2.26838246 328.78084425 67.90234375 323.796875 C80.61822736 322.24751926 92.40217649 317.54806642 101.90234375 308.796875 C110.43169296 297.86605853 113.32800295 287.61054379 111.90234375 273.796875 C107.05674548 252.30770007 90.14802134 236.08295033 75.5390625 220.6484375 C72.39894933 217.33073649 69.29456177 213.98312511 66.21484375 210.609375 C62.47551854 206.51603084 58.72682749 202.43187553 54.96484375 198.359375 C54.21618042 197.54883667 54.21618042 197.54883667 53.45239258 196.72192383 C52.44113763 195.62722608 51.42982563 194.53258104 50.41845703 193.43798828 C47.91220271 190.72509914 45.40733929 188.01092641 42.90234375 185.296875 C41.90235051 184.21353543 40.90235051 183.13020209 39.90234375 182.046875 C33.90234375 175.546875 33.90234375 175.546875 32.40283203 173.92236328 C31.40125849 172.83735244 30.39963075 171.75239162 29.39794922 170.66748047 C26.92158103 167.98521743 24.44611311 165.30213566 21.97265625 162.6171875 C16.61521962 156.80387459 11.23882501 151.00914179 5.83984375 145.234375 C0.73123501 139.76941644 -4.3426635 134.27488317 -9.390625 128.75390625 C-12.26256284 125.61354341 -15.14772159 122.48548686 -18.03515625 119.359375 C-18.53418457 118.81909668 -19.03321289 118.27881836 -19.54736328 117.72216797 C-20.55870297 116.62739194 -21.57009633 115.5326655 -22.58154297 114.43798828 C-25.08779729 111.72509914 -27.59266071 109.01092641 -30.09765625 106.296875 C-31.09764949 105.21353543 -32.09764949 104.13020209 -33.09765625 103.046875 C-35.09765625 100.88020833 -37.09765625 98.71354167 -39.09765625 96.546875 C-39.59265625 96.01078613 -40.08765625 95.47469727 -40.59765625 94.92236328 C-41.59830538 93.838001 -42.59830489 92.7530389 -43.59765625 91.66748047 C-46.08276698 88.9696145 -48.57799684 86.2828428 -51.09765625 83.6171875 C-67.38415624 66.32420353 -84.6533205 47.20021181 -84.375 22.05859375 C-83.61153435 13.07980755 -80.20194201 5.3707212 -74.09765625 -1.203125 C-73.53433594 -1.81929687 -72.97101562 -2.43546875 -72.390625 -3.0703125 C-52.49842983 -22.58560292 -20.23976029 -14.39498714 0 0 Z " fill="#E26841" transform="translate(831.09765625,903.203125)"/>
<path d="M0 0 C8.46646163 7.86397934 12.63678848 18.0161734 13.1484375 29.4375 C12.67917389 50.67167842 -1.80560494 67.73147338 -15.5859375 82.4296875 C-17.94025341 84.94420834 -20.24754439 87.49090745 -22.5390625 90.0625 C-26.93617059 94.96303371 -31.42953986 99.77015288 -35.9284668 104.5769043 C-40.49075271 109.45361885 -45.01330042 114.36448495 -49.51953125 119.29296875 C-53.90144129 124.084433 -58.31275705 128.84882411 -62.71923828 133.61767578 C-64.20066384 135.22195361 -65.68065242 136.82754366 -67.16015625 138.43359375 C-72.51608251 144.24579858 -77.89133714 150.03907652 -83.2890625 155.8125 C-88.39767124 161.27745856 -93.47156975 166.77199183 -98.51953125 172.29296875 C-102.89864462 177.08137494 -107.30689573 181.84297075 -111.71044922 186.60888672 C-114.21670354 189.32177586 -116.72156696 192.03594859 -119.2265625 194.75 C-120.22655574 195.83333957 -121.22655574 196.91667291 -122.2265625 198 C-122.9690625 198.804375 -122.9690625 198.804375 -123.7265625 199.625 C-140.2265625 217.5 -140.2265625 217.5 -141.72680664 219.12475586 C-142.72666913 220.20827931 -143.72585568 221.2924269 -144.72436523 222.37719727 C-147.22130033 225.08814375 -149.7290282 227.78724195 -152.26171875 230.46484375 C-167.98890814 247.15394075 -184.31362699 265.34910932 -183.6171875 289.625 C-182.77782069 297.41432395 -179.97074712 304.02325769 -175.2265625 310.25 C-174.63101562 311.05566406 -174.03546875 311.86132812 -173.421875 312.69140625 C-165.21309057 322.25858383 -151.44957729 326.97414407 -139.2265625 328.25 C-76.53217175 332.27430211 -9.02766958 279.3697668 38.00976562 242.62353516 C39.99310184 241.07892697 41.98454184 239.54510932 43.9765625 238.01171875 C53.7828059 230.4474806 63.40602969 222.69098444 72.93115234 214.77636719 C75.44954334 212.68983386 77.98621012 210.62606265 80.5234375 208.5625 C85.04187466 204.87244299 89.4957149 201.11079982 93.94067383 197.33300781 C97.33354867 194.45396139 100.7564306 191.61770164 104.2109375 188.8125 C108.45736717 185.35725373 112.62627405 181.82288048 116.7734375 178.25 C121.70737477 174.00166364 126.68674367 169.82258087 131.7421875 165.71875 C134.0838998 163.81158225 136.41603437 161.89475202 138.7421875 159.96875 C145.96763528 153.98827461 153.21696176 148.05209249 160.61572266 142.28686523 C163.53322239 140.01304147 166.4353634 137.72415619 169.30859375 135.39453125 C232.02091021 84.5549349 232.02091021 84.5549349 264.7734375 87.25 C275.77146575 88.86143271 285.13786214 93.25298201 292.23828125 101.96484375 C300.48499835 114.24049134 301.88096058 128.90169611 299.125 143.2578125 C292.9656643 166.7896335 273.29235954 184.72583877 254.7734375 199.25 C252.83465954 200.82489869 250.90299875 202.40831416 248.97094727 203.99145508 C242.47234244 209.30960889 235.90486565 214.51449628 229.2265625 219.60546875 C226.68049494 221.54785265 224.1531905 223.51267845 221.6328125 225.48828125 C212.32444769 232.78188851 202.90484306 239.89338224 193.36328125 246.87890625 C189.11872173 249.98803501 184.911164 253.14388053 180.7109375 256.3125 C121.18856449 301.08184354 58.02271273 341.50940658 -6.39453125 378.828125 C-20.87380611 387.210801 -20.87380611 387.210801 -34.2265625 397.25 C-35.11472656 398.0028125 -36.00289062 398.755625 -36.91796875 399.53125 C-46.87258133 408.66991073 -52.31822158 420.25824987 -53.5390625 433.6875 C-52.71098638 443.12756771 -49.50272369 450.79255348 -42.1875 456.97265625 C-31.59908539 464.5865869 -19.90115373 465.59621545 -7.2265625 464.25 C11.54467387 461.0967557 29.44990169 449.59480968 45.84375 440.515625 C51.83183513 437.20220437 57.87018575 433.98536657 63.91156006 430.77062988 C74.01270213 425.39198845 84.04032815 419.90060639 93.98242188 414.23242188 C101.06575535 410.19810807 108.19680173 406.25583923 115.34411621 402.33660889 C126.93956116 395.97552961 138.42001277 389.44869294 149.8203125 382.7421875 C155.00374205 379.69301013 160.2127127 376.69024806 165.4284668 373.69677734 C178.34974037 366.27941852 191.15207985 358.67994441 203.90576172 350.97851562 C206.55714322 349.38037319 209.21275587 347.78966202 211.87109375 346.203125 C239.30584248 329.82589481 266.39522395 312.87078173 293.38085938 295.765625 C295.85924577 294.19564309 298.33980873 292.62913396 300.8203125 291.0625 C310.89949587 284.68526205 320.92268611 278.22521777 330.8984375 271.6875 C331.4799054 271.30650146 332.06137329 270.92550293 332.66046143 270.53295898 C340.09346226 265.65983572 347.51136483 260.76417399 354.92001343 255.85411072 C358.81689192 253.27197286 362.71580211 250.69290995 366.61468506 248.11380005 C368.52516962 246.84859561 370.43458785 245.58177921 372.34283447 244.3132019 C381.49273885 238.23047903 390.6536872 232.19379891 400.109375 226.59375 C400.77249695 226.19909042 401.4356189 225.80443085 402.11883545 225.39781189 C422.38248548 213.59662839 444.76395261 208.97704282 467.58984375 214.9921875 C479.53731494 218.83305306 488.6194171 226.3208081 494.7734375 237.25 C501.85349767 253.90049035 501.08558563 270.69644223 494.5234375 287.4375 C488.69100449 300.48691984 479.81685911 310.26618326 469.7734375 320.25 C469.24645264 320.79624023 468.71946777 321.34248047 468.17651367 321.90527344 C464.04453304 326.149971 459.69993324 329.82787761 454.9609375 333.375 C454.22157959 333.9328418 453.48222168 334.49068359 452.72045898 335.06542969 C450.41053496 336.80146711 448.09299981 338.52686836 445.7734375 340.25 C445.0731543 340.77368164 444.37287109 341.29736328 443.65136719 341.83691406 C426.15458373 354.88326744 407.79804981 367.069211 388.90869141 378.00927734 C386.36025594 379.4900856 383.82346652 380.99018469 381.28515625 382.48828125 C348.07887349 401.97435085 313.70942054 419.45923115 278.72593689 435.51441956 C273.59575321 437.86911708 268.47295131 440.23952364 263.3515625 442.61328125 C247.46153016 449.97433665 231.55306995 457.28419037 215.56054688 464.42016602 C200.24977914 471.2571641 185.0045992 478.23770624 169.7734375 485.25 C169.11817078 485.55164062 168.46290405 485.85328125 167.78778076 486.1640625 C134.55404366 501.47271948 101.4314113 517.12264664 69.5234375 535.0625 C68.6065918 535.57780273 67.68974609 536.09310547 66.74511719 536.62402344 C44.59081966 549.14364619 44.59081966 549.14364619 30.3984375 569.625 C28.49474297 580.6664283 30.07269536 590.20256863 36.4609375 599.5625 C43.3392057 607.99225726 54.11805785 612.91017765 64.7734375 614.25 C80.70905803 615.35730898 96.50571677 613.51932036 112.31265259 611.73495483 C113.1595163 611.63937286 114.00638 611.54379089 114.87890625 611.4453125 C115.74454193 611.3473941 116.61017761 611.24947571 117.50204468 611.14859009 C124.29012032 610.39079583 131.08465059 609.73576014 137.88671875 609.1171875 C209.75477145 602.57075211 280.76300772 590.92131447 351.85101318 578.73641968 C402.55786856 570.04529032 453.24768119 561.66731362 504.3359375 555.5 C505.42729004 555.36413483 506.51864258 555.22826965 507.64306641 555.08828735 C510.68610448 554.71354177 513.73082687 554.36079718 516.77734375 554.015625 C517.6500441 553.90588852 518.52274445 553.79615204 519.42189026 553.68309021 C526.50682213 552.92528605 533.03459252 553.70569446 539.6484375 556.4375 C543.58058523 559.79139071 545.38814277 563.58038949 546.5234375 568.5 C546.6471875 570.35625 546.6471875 570.35625 546.7734375 572.25 C546.825 573.00539063 546.8765625 573.76078125 546.9296875 574.5390625 C547.91953558 601.84237208 534.87124898 627.20639657 516.9609375 647 C455.14344315 712.86126169 325.22723103 706.74321209 227.94207859 715.30582142 C204.69361587 717.32346517 181.45894846 719.4054574 158.25390625 721.87890625 C157.31818157 721.97831135 156.38245689 722.07771645 155.41837692 722.18013382 C73.77995356 730.89504956 -8.70013433 744.71290053 -84.2265625 778.25 C-85.73549072 778.91298096 -85.73549072 778.91298096 -87.27490234 779.58935547 C-117.90177028 793.0931725 -152.02031612 809.36620635 -166.0078125 841.96484375 C-171.75310336 857.45134893 -171.86278376 872.0327838 -165.2265625 887.1875 C-156.40152346 903.71153452 -139.82540231 913.53084829 -123.42089844 921.20947266 C-121.16502615 922.27917978 -118.93387922 923.39065336 -116.703125 924.51171875 C-93.60497344 936.00084513 -69.16209451 944.55844065 -45.00524902 953.51141357 C16.7315953 976.39742033 83.38572416 1001.17983798 125.640625 1054.56640625 C127.02727024 1056.31114119 128.44796076 1058.02953146 129.90625 1059.71484375 C149.21805105 1082.17606038 164.87338951 1112.62127353 164.078125 1142.9296875 C163.7734375 1145.25 163.7734375 1145.25 162.2734375 1148.375 C158.86351265 1150.93244364 155.95268973 1151.63443413 151.7734375 1151.25 C147.5530527 1149.60912298 143.73867712 1147.34450155 139.8359375 1145.0625 C137.50360219 1143.75601674 135.16931308 1142.45378513 132.83203125 1141.15625 C132.24091553 1140.82567093 131.6497998 1140.49509186 131.04077148 1140.15449524 C48.97529482 1094.3999026 -49.41673851 1077.93144136 -150.9375 1056.97265625 C-151.81752182 1056.79143471 -152.69754364 1056.61021317 -153.60423279 1056.42350006 C-155.38635436 1056.05653578 -157.16847921 1055.68958736 -158.9506073 1055.32265472 C-227.24214377 1041.26153436 -227.24214377 1041.26153436 -259.2265625 1033.25 C-260.14447571 1033.02010376 -261.06238892 1032.79020752 -262.00811768 1032.55334473 C-274.4296468 1029.43274227 -286.81483076 1026.19199435 -299.16772461 1022.81005859 C-301.0099285 1022.3089302 -302.85535504 1021.81968382 -304.70117188 1021.33203125 C-338.26735537 1012.40137892 -369.39663489 990.92460035 -398.2265625 972.25 C-399.7734375 971.24839844 -399.7734375 971.24839844 -401.3515625 970.2265625 C-404.33173867 968.26461319 -407.28304661 966.26659142 -410.2265625 964.25 C-410.92265625 963.77401367 -411.61875 963.29802734 -412.3359375 962.80761719 C-425.62054422 953.69673967 -438.49353201 944.11391451 -451.2265625 934.25 C-451.90477051 933.72776855 -452.58297852 933.20553711 -453.28173828 932.66748047 C-461.57517702 926.28048066 -469.58231129 919.61574827 -477.48535156 912.75292969 C-479.19910005 911.27370427 -480.92499528 909.8102409 -482.65625 908.3515625 C-497.32112702 895.97604224 -511.03209472 882.61394237 -524.57543945 869.03149414 C-526.81541436 866.7860842 -529.06078946 864.54617161 -531.30664062 862.30664062 C-532.76073792 860.85188354 -534.21452553 859.39681682 -535.66796875 857.94140625 C-536.32535538 857.28604385 -536.982742 856.63068146 -537.66004944 855.95545959 C-542.04645494 851.54705583 -546.16884647 846.96091518 -550.2265625 842.25 C-551.72226477 840.57947538 -553.22160516 838.91219168 -554.7265625 837.25 C-557.94315049 833.68142847 -561.15474007 830.1110135 -564.296875 826.4765625 C-565.75660912 824.7922539 -567.2336612 823.12293342 -568.71875 821.4609375 C-595.91472424 790.66168026 -609.75646823 750.96217597 -609.5390625 710.0625 C-609.53723969 709.34455261 -609.53541687 708.62660522 -609.53353882 707.88690186 C-609.48352324 696.13242594 -608.77992751 684.75019518 -606.2265625 673.25 C-606.06027344 672.486875 -605.89398437 671.72375 -605.72265625 670.9375 C-595.76768904 626.6932013 -571.75555005 587.92740863 -541.46484375 554.70703125 C-539.99197443 553.09021658 -538.53063825 551.462807 -537.08203125 549.82421875 C-529.34798884 541.08684111 -521.23354533 532.64996365 -512.33984375 525.08203125 C-510.17023215 523.20116648 -508.06207741 521.2610051 -505.95800781 519.30737305 C-499.9095487 513.69600214 -493.66451687 508.41351896 -487.2265625 503.25 C-471.31599255 490.41738976 -471.31599255 490.41738976 -456.43359375 476.42578125 C-454.48525151 474.50502616 -452.49657041 472.70957195 -450.4140625 470.9375 C-442.68810924 464.29318019 -435.53361709 456.93201306 -428.93359375 449.17578125 C-426.95056455 446.93863389 -424.85462864 444.84945348 -422.7265625 442.75 C-419.33387851 439.39743221 -416.13555566 435.95524318 -413.03125 432.3359375 C-411.01004974 429.99974499 -408.93277411 427.72035149 -406.8515625 425.4375 C-402.97622507 421.14391368 -399.3043494 416.71911998 -395.66796875 412.22265625 C-392.949363 408.91248189 -390.15561033 405.67514501 -387.3515625 402.4375 C-381.88306087 396.10208309 -376.68814403 389.58414874 -371.56347656 382.96923828 C-370.26924334 381.3048865 -368.96514284 379.64893288 -367.65625 377.99609375 C-355.90910031 363.15805401 -344.4640482 348.098877 -333.44140625 332.71484375 C-330.0622195 328.00436766 -326.61446684 323.34592336 -323.1640625 318.6875 C-317.22336669 310.65316689 -311.42707415 302.52638169 -305.69433594 294.34277344 C-303.21366206 290.80579132 -300.71936634 287.27843802 -298.2265625 283.75 C-297.22649862 282.33337843 -296.22649858 280.91671178 -295.2265625 279.5 C-285.2265625 265.33333333 -275.2265625 251.16666667 -265.2265625 237 C-264.73164307 236.29883057 -264.23672363 235.59766113 -263.72680664 234.87524414 C-262.72612062 233.45767346 -261.72530667 232.04019308 -260.72436523 230.62280273 C-258.23380799 227.09569428 -255.74544658 223.56707783 -253.26171875 220.03515625 C-248.15424415 212.77765245 -243.00634313 205.5540344 -237.7890625 198.375 C-233.30119165 192.19831131 -228.94547613 185.94633989 -224.6640625 179.625 C-219.2044847 171.57477004 -213.48084141 163.76625021 -207.58154297 156.03417969 C-206.30736162 154.35639279 -205.04690843 152.66951033 -203.79296875 150.9765625 C-192.44321455 135.67308111 -180.03454236 121.21910677 -167.046875 107.2890625 C-164.46461089 104.51772413 -161.93438558 101.70288793 -159.4140625 98.875 C-156.34866107 95.45058759 -153.18517761 92.17942404 -149.90625 88.9609375 C-147.47464338 86.48409169 -145.24129943 83.84746251 -142.9765625 81.21875 C-141.28857964 79.31976929 -139.53886516 77.52994012 -137.7265625 75.75 C-134.75598844 72.82532885 -132.01927131 69.76380439 -129.30078125 66.60546875 C-127.21232281 64.23382951 -125.07152453 61.92133171 -122.91479492 59.61206055 C-117.92399191 54.26582943 -113.15185326 48.82441344 -108.5625 43.125 C-103.90696685 37.39511304 -99.07955388 31.81291649 -94.2265625 26.25 C-93.75428223 25.70633789 -93.28200195 25.16267578 -92.79541016 24.60253906 C-70.88750349 -0.47675402 -31.32489665 -24.62026964 0 0 Z " fill="#E26841" transform="translate(2206.2265625,898.75)"/>
<path d="M0 0 C15.18 0 30.36 0 46 0 C54.0727566 14.21905992 62.04867997 28.48372757 69.93440247 42.80671692 C70.27186996 43.41964096 70.60933746 44.032565 70.95703125 44.6640625 C71.29405563 45.27622116 71.63108002 45.88837982 71.97831726 46.51908875 C77.32646236 56.22893705 82.7219223 65.91257103 88.11035156 75.60009766 C90.07328449 79.13185528 92.0331048 82.66532479 93.9921875 86.19921875 C94.98771487 87.99415797 95.98332636 89.78905049 96.97897339 91.58392334 C97.89550849 93.23677383 98.81117838 94.890104 99.72680664 96.54345703 C104.08707759 104.40162198 108.54028257 112.19549449 113 120 C113.495 60.6 113.495 60.6 114 0 C128.85 0 143.7 0 159 0 C159 66.33 159 132.66 159 201 C143.82 201 128.64 201 113 201 C110.958125 197.184375 108.91625 193.36875 106.8125 189.4375 C101.60396028 179.73667109 96.27761912 170.11602488 90.82739258 160.54858398 C86.96174377 153.74609556 83.20767075 146.88972661 79.5 140 C73.16517308 128.23600023 66.59575165 116.62108624 60 105 C53.07 92.625 53.07 92.625 46 80 C45.67 119.93 45.34 159.86 45 201 C30.15 201 15.3 201 0 201 C0 134.67 0 68.34 0 0 Z " fill="#F6C348" transform="translate(2567,2278)"/>
<path d="M0 0 C15.18 0 30.36 0 46 0 C54.0727566 14.21905992 62.04867997 28.48372757 69.93440247 42.80671692 C70.27186996 43.41964096 70.60933746 44.032565 70.95703125 44.6640625 C71.29405563 45.27622116 71.63108002 45.88837982 71.97831726 46.51908875 C77.32646236 56.22893705 82.7219223 65.91257103 88.11035156 75.60009766 C90.07328449 79.13185528 92.0331048 82.66532479 93.9921875 86.19921875 C94.98771487 87.99415797 95.98332636 89.78905049 96.97897339 91.58392334 C97.89550849 93.23677383 98.81117838 94.890104 99.72680664 96.54345703 C104.08707759 104.40162198 108.54028257 112.19549449 113 120 C113.495 60.6 113.495 60.6 114 0 C128.85 0 143.7 0 159 0 C159 66.33 159 132.66 159 201 C143.82 201 128.64 201 113 201 C110.958125 197.184375 108.91625 193.36875 106.8125 189.4375 C101.60396028 179.73667109 96.27761912 170.11602488 90.82739258 160.54858398 C86.96174377 153.74609556 83.20767075 146.88972661 79.5 140 C73.16517308 128.23600023 66.59575165 116.62108624 60 105 C53.07 92.625 53.07 92.625 46 80 C45.67 119.93 45.34 159.86 45 201 C30.15 201 15.3 201 0 201 C0 134.67 0 68.34 0 0 Z " fill="#F6C348" transform="translate(1900,2278)"/>
<path d="M0 0 C14.85 0 29.7 0 45 0 C45 26.4 45 52.8 45 80 C66.78 80 88.56 80 111 80 C111 53.6 111 27.2 111 0 C126.84 0 142.68 0 159 0 C159 66.33 159 132.66 159 201 C143.16 201 127.32 201 111 201 C111 174.6 111 148.2 111 121 C89.22 121 67.44 121 45 121 C45 147.4 45 173.8 45 201 C30.15 201 15.3 201 0 201 C0 134.67 0 68.34 0 0 Z " fill="#F6C348" transform="translate(1414,2278)"/>
<path d="M0 0 C85.64902507 0 85.64902507 0 104 9 C105.06734375 9.51433594 106.1346875 10.02867187 107.234375 10.55859375 C114.99443287 14.50237903 121.54458812 19.17631038 128 25 C128.78117187 25.69867187 129.56234375 26.39734375 130.3671875 27.1171875 C149.66578989 45.34735516 158.63922596 70.59582747 160.21875 96.6015625 C160.98298058 126.34286938 150.14009493 153.18193152 129.8125 174.6875 C121.26761455 182.92079075 111.6000299 189.21905554 100.6875 193.875 C100.08599121 194.13700195 99.48448242 194.39900391 98.86474609 194.66894531 C67.80420966 207.00448336 31.64873964 201 0 201 C0 134.67 0 68.34 0 0 Z M44 42 C44 80.94 44 119.88 44 160 C63.13662752 160 81.65329762 159.04522031 96.1328125 145.125 C108.48330518 131.06920917 114.87113195 114.63255236 113.84375 95.81640625 C112.71569936 82.56892078 108.20871093 71.43075573 100 61 C99.39414063 60.17628906 98.78828125 59.35257813 98.1640625 58.50390625 C90.17318948 49.25814884 78.72162288 44.34432458 67 42 C59.41 42 51.82 42 44 42 Z " fill="#F6C348" transform="translate(2139,2278)"/>
<path d="M0 0 C100.85054348 0 100.85054348 0 120.6796875 18.5859375 C133.14848879 31.55852875 138.60095387 48.08102393 138.4375 65.8125 C138.43065186 66.95525391 138.42380371 68.09800781 138.41674805 69.27539062 C138.25482467 77.79971623 137.33675725 85.07930409 134 93 C133.63777344 93.89203125 133.27554688 94.7840625 132.90234375 95.703125 C125.46506655 112.14076816 112.79923143 120.79456631 97 128 C96.01 128.33 95.02 128.66 94 129 C94.82242188 130.00417969 95.64484375 131.00835938 96.4921875 132.04296875 C102.99383538 140.00085257 109.37895448 148.02155208 115.61328125 156.19091797 C122.631439 165.34664841 129.75229076 174.42546708 136.875 183.5 C137.53773926 184.34534302 137.53773926 184.34534302 138.21386719 185.20776367 C141.6305053 189.55568632 145.11468953 193.84623743 148.63671875 198.109375 C150 200 150 200 150 202 C142.68959849 202.20914865 135.3798483 202.36874714 128.06705379 202.46630955 C124.67065727 202.51315395 121.27631659 202.57660075 117.88110352 202.67895508 C113.97177346 202.79606158 110.0632558 202.83923063 106.15234375 202.87890625 C104.94166733 202.92535782 103.73099091 202.97180939 102.48362732 203.01966858 C94.25187224 203.02457434 94.25187224 203.02457434 90.8184967 200.21458435 C88.98235146 197.89997115 87.48210184 195.55371924 86 193 C85.09335863 191.6792932 84.17912601 190.36375405 83.25610352 189.05444336 C82.37681294 187.73527492 81.50118589 186.41365851 80.62890625 185.08984375 C79.90162575 183.99573936 79.90162575 183.99573936 79.15965271 182.87953186 C77.62395001 180.56770267 76.09307655 178.25272534 74.5625 175.9375 C73.57389876 174.44704599 72.58496784 172.95681059 71.59570312 171.46679688 C68.39586353 166.64537512 65.19798121 161.82265459 62 157 C56.72 149.08 51.44 141.16 46 133 C45.67 155.77 45.34 178.54 45 202 C30.15 202 15.3 202 0 202 C0 135.34 0 68.68 0 0 Z M45 36 C45 55.47 45 74.94 45 95 C67.8545044 96.64988356 67.8545044 96.64988356 86.9375 87.75 C93.73003229 80.17559349 95.37766687 72.33376093 95.27734375 62.390625 C94.68547482 55.15481887 91.78095046 48.85344668 86.83984375 43.53515625 C74.5930108 33.31646124 60.70248961 36 45 36 Z " fill="#CF3A50" transform="translate(840,2277)"/>
<path d="M0 0 C7.62931246 -0.43334638 15.25543507 -0.72959051 22.89428711 -0.93383789 C25.48794045 -1.01900552 28.080785 -1.13479233 30.67163086 -1.2824707 C51.50926512 -2.43989455 51.50926512 -2.43989455 57.16891479 1.51599121 C60.81113417 5.41133368 62.9813949 9.91789753 65.03408813 14.79653931 C66.43521597 17.99282483 68.24967827 20.75367876 70.15234375 23.6796875 C71.41593788 25.74364469 72.67765887 27.80874983 73.9375 29.875 C79.32613379 38.68366653 84.76470951 47.45419523 90.37084961 56.12646484 C92.6341618 59.66346936 94.63204022 62.99832455 96 67 C96.66 67 97.32 67 98 67 C98.26989746 66.27449951 98.53979492 65.54899902 98.81787109 64.80151367 C99.97893517 62.0499213 101.31626664 59.69519055 102.9140625 57.17578125 C103.50243896 56.24217773 104.09081543 55.30857422 104.69702148 54.34667969 C105.33325439 53.34540039 105.9694873 52.34412109 106.625 51.3125 C107.98400039 49.15813687 109.34203938 47.00316703 110.69921875 44.84765625 C111.22567741 44.01257034 111.22567741 44.01257034 111.76277161 43.16061401 C114.29204149 39.14298694 116.78965738 35.10687482 119.26953125 31.05859375 C119.61961243 30.48736282 119.9696936 29.9161319 120.3303833 29.32759094 C122.01246504 26.58128874 123.6915494 23.83319318 125.36767578 21.08325195 C126.6127481 19.04993591 127.88709925 17.03424123 129.19091797 15.03808594 C131.10441617 12.03212096 131.10441617 12.03212096 132.26611328 8.59472656 C134.07063095 4.48964548 135.29783907 2.59767785 139 0 C148.09864571 -2.05411178 157.75713924 -1.11818611 167 -0.75 C169.61315958 -0.68977851 172.22645142 -0.63503066 174.83984375 -0.5859375 C181.22945546 -0.45398488 187.61411718 -0.25349625 194 0 C192.7901108 3.10232932 191.62254324 5.80049214 189.671875 8.50390625 C189.2092627 9.15141846 188.74665039 9.79893066 188.27001953 10.46606445 C187.76841309 11.15788818 187.26680664 11.84971191 186.75 12.5625 C185.65835022 14.08818121 184.56722562 15.6142383 183.4765625 17.140625 C182.62046387 18.33461914 182.62046387 18.33461914 181.74707031 19.55273438 C178.84414756 23.61909794 175.98559413 27.71630262 173.125 31.8125 C171.93759017 33.51047973 170.75008954 35.20839596 169.5625 36.90625 C168.97210937 37.75058594 168.38171875 38.59492188 167.7734375 39.46484375 C166.03766367 41.9461592 164.30037486 44.42640574 162.5625 46.90625 C156.9694765 54.88844129 151.3871672 62.87773301 145.82763672 70.88330078 C139.28507096 80.30428795 132.70795719 89.69593438 126 99 C127.69528642 102.66717219 129.87825221 105.96803856 132.125 109.3125 C132.55385498 109.95348633 132.98270996 110.59447266 133.42456055 111.25488281 C138.16839921 118.3085142 143.03831366 125.27470309 147.90283203 132.24536133 C152.13351587 138.30907734 156.33527072 144.3908175 160.5 150.5 C165.33548194 157.59027586 170.21943194 164.64554322 175.125 171.6875 C175.79789063 172.65453857 176.47078125 173.62157715 177.1640625 174.61791992 C180.25781469 179.06405573 183.35509166 183.50761644 186.4609375 187.9453125 C187.47418186 189.40088609 188.48721792 190.85660472 189.5 192.3125 C189.96293457 192.97016357 190.42586914 193.62782715 190.90283203 194.30541992 C194 198.77260512 194 198.77260512 194 201 C186.33337136 201.3562385 178.66888484 201.60061636 170.99584961 201.76904297 C168.38891889 201.83926877 165.78253623 201.93468285 163.17749023 202.05615234 C142.27173654 203.00623242 142.27173654 203.00623242 137.03686523 199.79620361 C133.90906471 196.6864413 132.30733055 193.01212448 130.77694702 188.92913818 C129.53346596 185.84160876 127.7194265 183.14817376 125.9296875 180.3515625 C124.57654752 178.11032664 123.22502065 175.86811619 121.875 173.625 C117.49131666 166.35727856 113.09008393 159.10353636 108.56640625 151.921875 C107.87111816 150.81763184 107.17583008 149.71338867 106.45947266 148.57568359 C105.1337383 146.4771111 103.80411771 144.38098754 102.47021484 142.28759766 C101.88062988 141.3547998 101.29104492 140.42200195 100.68359375 139.4609375 C100.16337646 138.64415527 99.64315918 137.82737305 99.10717773 136.98583984 C98 135 98 135 98 133 C97.34 133 96.68 133 96 133 C95.72559082 133.73001221 95.45118164 134.46002441 95.16845703 135.2121582 C94.05932722 137.85845016 92.80462471 140.16392978 91.3046875 142.60546875 C90.76158936 143.49371338 90.21849121 144.38195801 89.65893555 145.29711914 C89.07023682 146.25094482 88.48153809 147.20477051 87.875 148.1875 C87.26116455 149.18837646 86.6473291 150.18925293 86.01489258 151.22045898 C84.6983368 153.36580394 83.37999943 155.51005638 82.06005859 157.65332031 C79.97903504 161.03405874 77.90487544 164.4189289 75.83203125 167.8046875 C74.45103889 170.05760989 73.06928436 172.31006309 71.6875 174.5625 C71.05505371 175.59463623 70.42260742 176.62677246 69.77099609 177.69018555 C68.51141299 179.7381913 67.22316853 181.76883443 65.9074707 183.78125 C64.4564347 186.22979201 63.48292943 188.24325068 62.50463867 190.859375 C60.74196753 195.07324216 58.97710321 198.5394681 55 201 C45.94377651 203.36504906 36.1853346 202.30621305 26.9375 201.875 C24.32894224 201.80473037 21.72020375 201.74085976 19.11132812 201.68359375 C12.73692726 201.52975075 6.36930046 201.29595669 0 201 C1.33152834 197.56270717 2.72869198 194.70458446 4.87109375 191.69921875 C5.43981201 190.89516602 6.00853027 190.09111328 6.59448242 189.26269531 C7.20267822 188.41288086 7.81087402 187.56306641 8.4375 186.6875 C9.71409973 184.88450959 10.99013495 183.08111935 12.265625 181.27734375 C12.89919922 180.3838623 13.53277344 179.49038086 14.18554688 178.56982422 C16.71716709 174.98427062 19.20731767 171.3712479 21.6875 167.75 C22.13254883 167.1012793 22.57759766 166.45255859 23.03613281 165.78417969 C24.35814153 163.85661191 25.67915922 161.92836822 27 160 C32.57717276 151.86166369 38.17526387 143.73872907 43.81567383 135.64404297 C45.86671066 132.69940087 47.9140364 129.75220549 49.9609375 126.8046875 C52.59803665 123.00822875 55.25031608 119.22311186 57.9140625 115.4453125 C59.10965738 113.73457231 60.3049838 112.02364447 61.5 110.3125 C62.05800293 109.5289917 62.61600586 108.7454834 63.19091797 107.93823242 C63.94719482 106.84925659 63.94719482 106.84925659 64.71875 105.73828125 C65.16154297 105.10962158 65.60433594 104.48096191 66.06054688 103.83325195 C67.30403784 101.75002417 67.30403784 101.75002417 67 98 C65.78975637 95.70793533 65.78975637 95.70793533 64.0625 93.38671875 C63.42296387 92.48026611 62.78342773 91.57381348 62.12451172 90.63989258 C61.42342285 89.66560303 60.72233398 88.69131348 60 87.6875 C58.52317667 85.60174716 57.0466216 83.51580435 55.5703125 81.4296875 C54.81008789 80.36202148 54.04986328 79.29435547 53.26660156 78.19433594 C49.76517032 73.25974671 46.32194892 68.28521703 42.875 63.3125 C36.18669769 53.69247286 29.47257691 44.09067277 22.74853516 34.49560547 C19.68498924 30.12314438 16.62390372 25.74896109 13.5625 21.375 C12.45964616 19.79947165 11.35678194 18.22395056 10.25390625 16.6484375 C9.72941895 15.8965918 9.20493164 15.14474609 8.66455078 14.37011719 C7.46414814 12.6608903 6.25281367 10.95932259 5.03466797 9.26269531 C4.39287598 8.36389648 3.75108398 7.46509766 3.08984375 6.5390625 C2.49937256 5.71873535 1.90890137 4.8984082 1.30053711 4.05322266 C0 2 0 2 0 0 Z " fill="#CF3A50" transform="translate(377,2278)"/>
<path d="M0 0 C12.87 0 25.74 0 39 0 C43.49924406 8.99848811 43.49924406 8.99848811 45.03613281 12.87915039 C45.38522202 13.75520935 45.73431122 14.63126831 46.09397888 15.53387451 C46.64300621 16.92669647 46.64300621 16.92669647 47.203125 18.34765625 C47.59786514 19.34009338 47.99260529 20.33253052 48.39930725 21.3550415 C49.24562314 23.48325078 50.09047572 25.61204246 50.93399048 27.74136353 C53.17566538 33.39854772 55.42950603 39.05087745 57.68359375 44.703125 C58.13635178 45.83885452 58.5891098 46.97458405 59.05558777 48.14472961 C63.07963692 58.22618779 67.17743007 68.2761503 71.3125 78.3125 C72.60950963 81.46218416 73.90638681 84.61192283 75.203125 87.76171875 C75.67574516 88.90948036 75.67574516 88.90948036 76.15791321 90.08042908 C79.65625653 98.58305562 83.11194268 107.10289135 86.5625 115.625 C86.86922638 116.382435 87.17595276 117.13987 87.49197388 117.92025757 C89.03635982 121.73438354 90.58012984 125.54875837 92.12353516 129.36328125 C95.01083919 136.49873128 97.90235474 143.63247377 100.79412842 150.76611328 C101.73789333 153.09512332 102.68080363 155.42447776 103.62353516 157.75390625 C106.52399031 164.91747742 109.43725501 172.07520426 112.38671875 179.21875 C112.90993087 180.48937934 113.43304574 181.76004873 113.95605469 183.03076172 C114.91707611 185.36236314 115.88232002 187.69223037 116.85253906 190.02001953 C117.27116211 191.03692871 117.68978516 192.05383789 118.12109375 193.1015625 C118.4864624 193.98150879 118.85183105 194.86145508 119.22827148 195.76806641 C120 198 120 198 120 201 C104.16 201 88.32 201 72 201 C68.83224684 193.8725554 66.0306267 186.85193323 63.42578125 179.52294922 C62.74306025 177.60550953 62.05149861 175.69140672 61.359375 173.77734375 C60.92625 172.56433594 60.493125 171.35132812 60.046875 170.1015625 C59.45664551 168.45148193 59.45664551 168.45148193 58.85449219 166.76806641 C58 164 58 164 58 161 C32.92 161.33 7.84 161.66 -18 162 C-22.62 174.87 -27.24 187.74 -32 201 C-48.17 201 -64.34 201 -81 201 C-79.13003876 194.76679588 -77.30086731 188.91380451 -74.8046875 182.96875 C-74.50054932 182.23277084 -74.19641113 181.49679169 -73.88305664 180.73851013 C-73.22762528 179.15366729 -72.5700767 177.56969866 -71.9105835 175.98654175 C-70.0969876 171.63191277 -68.30001064 167.27041384 -66.5 162.91015625 C-66.12567841 162.00471573 -65.75135681 161.09927521 -65.36569214 160.16639709 C-61.4865455 150.7764721 -57.67765566 141.35859861 -53.875 131.9375 C-46.8612183 114.57339689 -39.8012781 97.2283606 -32.72827148 79.88830566 C-27.63875625 67.40959141 -22.55942728 54.92695917 -17.515625 42.4296875 C-16.85957779 40.80443398 -16.85957779 40.80443398 -16.1902771 39.14634705 C-14.12059021 34.01760142 -12.05314099 28.88796745 -9.98876953 23.75708008 C-9.25035542 21.92528092 -8.51191301 20.09349316 -7.7734375 18.26171875 C-7.44837219 17.45165375 -7.12330688 16.64158875 -6.78839111 15.80697632 C-4.63737744 10.47626711 -2.33787389 5.26021626 0 0 Z M19 55 C12.77489926 72.18652902 6.55308756 89.37455877 0.41323853 106.59176636 C-0.0700591 107.94577603 -0.55445236 109.29939513 -1.03994751 110.65261841 C-1.71328251 112.53033967 -2.3821515 114.40966062 -3.05078125 116.2890625 C-3.61792847 117.87775146 -3.61792847 117.87775146 -4.1965332 119.49853516 C-5.10193688 121.87947508 -5.10193688 121.87947508 -5 124 C11.17 124 27.34 124 44 124 C41.9982608 117.32753599 39.9366332 110.74567975 37.63671875 104.1796875 C37.32225296 103.27735382 37.00778717 102.37502014 36.68379211 101.44534302 C36.02178098 99.54750198 35.35869633 97.6500351 34.69458008 95.75292969 C33.69766181 92.90403937 32.70502161 90.05368551 31.71289062 87.203125 C27.94890019 76.41379291 24.07439956 65.67609123 20 55 C19.67 55 19.34 55 19 55 Z " fill="#F6C348" transform="translate(1717,2278)"/>
<path d="M0 0 C12.87 0 25.74 0 39 0 C43.49924406 8.99848811 43.49924406 8.99848811 45.03613281 12.87915039 C45.38522202 13.75520935 45.73431122 14.63126831 46.09397888 15.53387451 C46.64300621 16.92669647 46.64300621 16.92669647 47.203125 18.34765625 C47.59786514 19.34009338 47.99260529 20.33253052 48.39930725 21.3550415 C49.24562314 23.48325078 50.09047572 25.61204246 50.93399048 27.74136353 C53.17566538 33.39854772 55.42950603 39.05087745 57.68359375 44.703125 C58.13635178 45.83885452 58.5891098 46.97458405 59.05558777 48.14472961 C63.07963692 58.22618779 67.17743007 68.2761503 71.3125 78.3125 C72.60950963 81.46218416 73.90638681 84.61192283 75.203125 87.76171875 C75.67574516 88.90948036 75.67574516 88.90948036 76.15791321 90.08042908 C79.65625653 98.58305562 83.11194268 107.10289135 86.5625 115.625 C86.86922638 116.382435 87.17595276 117.13987 87.49197388 117.92025757 C89.03635982 121.73438354 90.58012984 125.54875837 92.12353516 129.36328125 C95.01083919 136.49873128 97.90235474 143.63247377 100.79412842 150.76611328 C101.73789333 153.09512332 102.68080363 155.42447776 103.62353516 157.75390625 C106.52399031 164.91747742 109.43725501 172.07520426 112.38671875 179.21875 C112.90993087 180.48937934 113.43304574 181.76004873 113.95605469 183.03076172 C114.91707611 185.36236314 115.88232002 187.69223037 116.85253906 190.02001953 C117.27116211 191.03692871 117.68978516 192.05383789 118.12109375 193.1015625 C118.4864624 193.98150879 118.85183105 194.86145508 119.22827148 195.76806641 C120 198 120 198 120 201 C104.16 201 88.32 201 72 201 C68.83224684 193.8725554 66.0306267 186.85193323 63.42578125 179.52294922 C62.74306025 177.60550953 62.05149861 175.69140672 61.359375 173.77734375 C60.92625 172.56433594 60.493125 171.35132812 60.046875 170.1015625 C59.45664551 168.45148193 59.45664551 168.45148193 58.85449219 166.76806641 C58 164 58 164 58 161 C32.92 161.33 7.84 161.66 -18 162 C-22.62 174.87 -27.24 187.74 -32 201 C-48.17 201 -64.34 201 -81 201 C-79.13003876 194.76679588 -77.30086731 188.91380451 -74.8046875 182.96875 C-74.50054932 182.23277084 -74.19641113 181.49679169 -73.88305664 180.73851013 C-73.22762528 179.15366729 -72.5700767 177.56969866 -71.9105835 175.98654175 C-70.0969876 171.63191277 -68.30001064 167.27041384 -66.5 162.91015625 C-66.12567841 162.00471573 -65.75135681 161.09927521 -65.36569214 160.16639709 C-61.4865455 150.7764721 -57.67765566 141.35859861 -53.875 131.9375 C-46.8612183 114.57339689 -39.8012781 97.2283606 -32.72827148 79.88830566 C-27.63875625 67.40959141 -22.55942728 54.92695917 -17.515625 42.4296875 C-16.85957779 40.80443398 -16.85957779 40.80443398 -16.1902771 39.14634705 C-14.12059021 34.01760142 -12.05314099 28.88796745 -9.98876953 23.75708008 C-9.25035542 21.92528092 -8.51191301 20.09349316 -7.7734375 18.26171875 C-7.44837219 17.45165375 -7.12330688 16.64158875 -6.78839111 15.80697632 C-4.63737744 10.47626711 -2.33787389 5.26021626 0 0 Z M19 55 C12.77489926 72.18652902 6.55308756 89.37455877 0.41323853 106.59176636 C-0.0700591 107.94577603 -0.55445236 109.29939513 -1.03994751 110.65261841 C-1.71328251 112.53033967 -2.3821515 114.40966062 -3.05078125 116.2890625 C-3.61792847 117.87775146 -3.61792847 117.87775146 -4.1965332 119.49853516 C-5.10193688 121.87947508 -5.10193688 121.87947508 -5 124 C11.17 124 27.34 124 44 124 C41.9982608 117.32753599 39.9366332 110.74567975 37.63671875 104.1796875 C37.32225296 103.27735382 37.00778717 102.37502014 36.68379211 101.44534302 C36.02178098 99.54750198 35.35869633 97.6500351 34.69458008 95.75292969 C33.69766181 92.90403937 32.70502161 90.05368551 31.71289062 87.203125 C27.94890019 76.41379291 24.07439956 65.67609123 20 55 C19.67 55 19.34 55 19 55 Z " fill="#CF3A50" transform="translate(1113,2278)"/>
<path d="M0 0 C38.94 0 77.88 0 118 0 C118 13.53 118 27.06 118 41 C93.91 41 69.82 41 45 41 C45 53.87 45 66.74 45 80 C68.1 80 91.2 80 115 80 C115 93.53 115 107.06 115 121 C91.9 121 68.8 121 45 121 C45 133.87 45 146.74 45 160 C69.09 160 93.18 160 118 160 C118 173.53 118 187.06 118 201 C79.06 201 40.12 201 0 201 C0 134.67 0 68.34 0 0 Z " fill="#F6C348" transform="translate(2370,2278)"/>
<path d="M0 0 C38.94 0 77.88 0 118 0 C118 13.53 118 27.06 118 41 C93.91 41 69.82 41 45 41 C45 53.87 45 66.74 45 80 C68.1 80 91.2 80 115 80 C115 93.53 115 107.06 115 121 C91.9 121 68.8 121 45 121 C45 133.87 45 146.74 45 160 C69.09 160 93.18 160 118 160 C118 173.53 118 187.06 118 201 C79.06 201 40.12 201 0 201 C0 134.67 0 68.34 0 0 Z " fill="#CF3A50" transform="translate(195,2278)"/>
<path d="M0 0 C52.8 0 105.6 0 160 0 C160 13.53 160 27.06 160 41 C141.19 41 122.38 41 103 41 C103 93.8 103 146.6 103 201 C88.15 201 73.3 201 58 201 C58 148.2 58 95.4 58 41 C38.86 41 19.72 41 0 41 C0 27.47 0 13.94 0 0 Z " fill="#CF3A50" transform="translate(618,2278)"/>
</svg>
