<?xml version="1.0" encoding="UTF-8"?>
<svg version="1.1" xmlns="http://www.w3.org/2000/svg" width="555" height="714">
<path d="M0 0 C183.15 0 366.3 0 555 0 C555 235.62 555 471.24 555 714 C371.85 714 188.7 714 0 714 C0 478.38 0 242.76 0 0 Z " fill="#FEFEFE" transform="translate(0,0)"/>
<path d="M0 0 C2.23220716 2.14750287 2.92737916 3.52725254 3.3984375 6.59375 C3.20491617 30.59039444 -10.1595407 55.39379748 -27 72 C-28.82426205 73.949066 -30.63725895 75.90415619 -32.4375 77.875 C-33.11522461 78.61169922 -33.11522461 78.61169922 -33.80664062 79.36328125 C-34.73357237 80.37567479 -35.6537302 81.39430767 -36.56738281 82.41870117 C-37.54171523 83.49415295 -38.54256669 84.546036 -39.56542969 85.57543945 C-44.08799032 90.33902531 -45.71984335 95.15604486 -47.375 101.4375 C-47.76365234 102.82098633 -47.76365234 102.82098633 -48.16015625 104.23242188 C-48.79019812 106.48423817 -49.40289848 108.73926999 -50 111 C-49.67 111.33 -49.34 111.66 -49 112 C-48.70609375 111.51273437 -48.4121875 111.02546875 -48.109375 110.5234375 C-43.53885986 103.2999222 -38.01942835 97.00035362 -32.39501953 90.59472656 C-31.18873889 89.21575821 -29.99725372 87.82387335 -28.80859375 86.4296875 C-27.91333984 85.38167969 -27.91333984 85.38167969 -27 84.3125 C-26.505 83.73113281 -26.01 83.14976562 -25.5 82.55078125 C-23.04339474 80.01100966 -21.02323295 78.17906577 -17.5 77.5625 C-15 78 -15 78 -12.6875 79.5 C-10.35655026 82.95325887 -10.4216091 85.99827683 -11 90 C-12.15983113 93.21363256 -13.71637925 96.17133751 -15.3125 99.1875 C-20.37294467 109.27406461 -22.89634824 118.74275204 -24 130 C-17.98187642 126.69593215 -13.70350841 121.92245182 -9 117 C-8.39285156 116.38640625 -7.78570312 115.7728125 -7.16015625 115.140625 C-3.58256863 111.31724892 -1.91867163 107.57086194 -0.1171875 102.6875 C3.35308861 94.3394232 8.7075205 86.14623975 17 82 C21.57758127 81.44153508 25.57370819 81.30726568 29.5 83.9375 C32.98050139 86.80891365 32.98050139 86.80891365 33.3125 90.0625 C32.74854537 97.16832831 29.92650525 101.43111169 24.75 106.25 C19.89616723 110.32689914 15.03147799 112.98950734 9 115 C7.16282685 122.41430591 6.76423264 129.37685526 7 137 C16.35889907 135.57757665 22.2831028 127.98521545 28 121 C28.52916016 120.37061523 29.05832031 119.74123047 29.60351562 119.09277344 C31.40674927 116.93551227 33.1744477 114.75268228 34.9375 112.5625 C35.51781982 111.87115967 36.09813965 111.17981934 36.69604492 110.4675293 C40.4156133 105.74141798 41.69325483 102.2168351 41.83569336 96.18554688 C42 94 42 94 43.625 90.9375 C46.75790792 88.3817067 48.99459806 88.07282549 53 88 C53.99 88.66 54.98 89.32 56 90 C55.67 91.32 55.34 92.64 55 94 C54.34 94 53.68 94 53 94 C52.34 96.64 51.68 99.28 51 102 C51.97582031 102.03738281 52.95164062 102.07476562 53.95703125 102.11328125 C55.22933594 102.17902344 56.50164062 102.24476563 57.8125 102.3125 C59.07707031 102.37050781 60.34164063 102.42851562 61.64453125 102.48828125 C65 103 65 103 67.01171875 104.23046875 C68 106 68 106 67.89453125 108.20703125 C66.73834181 111.81696772 65.25232177 115.24138939 63.6875 118.6875 C63.05232929 120.11411358 62.41821246 121.54119685 61.78515625 122.96875 C61.47852051 123.65839844 61.17188477 124.34804688 60.85595703 125.05859375 C59.74132247 127.58670956 58.66902479 130.12944663 57.625 132.6875 C57.32851563 133.41324219 57.03203125 134.13898438 56.7265625 134.88671875 C55.91959547 137.2338648 55.43603917 139.55903564 55 142 C61.63339744 138.36084446 65.73236402 134.23782691 69.94921875 127.984375 C72 125 72 125 74.39453125 122.078125 C79.40185865 115.96255228 81.8891046 111.22085469 83.2578125 103.44921875 C84.64513247 97.00183174 87.43579026 91.05696339 90 85 C90.36996094 84.05125 90.73992187 83.1025 91.12109375 82.125 C92 80 92 80 93 79 C99.6 79.6 99.6 79.6 102 82 C101.70223742 85.87091353 100.71973492 87.38905448 98 90 C96.17685344 93.78757015 95.65030758 97.13700168 95.375 101.3125 C95.30023438 102.38113281 95.22546875 103.44976562 95.1484375 104.55078125 C95.09945313 105.35902344 95.05046875 106.16726563 95 107 C95.70962891 106.00033203 95.70962891 106.00033203 96.43359375 104.98046875 C109.67958213 86.51871107 109.67958213 86.51871107 115 82 C118.11811483 81.61023565 120.11019567 81.49577755 122.875 83.0625 C124.68064102 86.17221509 124.41842214 88.47329912 124 92 C122.3125 95 122.3125 95 120 98 C116.92595345 102.01234564 114.74557722 104.90522233 114 110 C113.52134298 111.32043315 113.01906499 112.63242231 112.5 113.9375 C111.20413935 117.26881005 110.4451962 120.4384304 110 124 C114.68439711 121.0177197 118.87146532 117.69957343 123.0625 114.0625 C123.9606543 113.29389648 123.9606543 113.29389648 124.87695312 112.50976562 C127.63067276 110.13607739 130.28843814 107.7428313 132.80859375 105.12109375 C135 103 135 103 137 103 C136.72772291 109.21375207 133.61116058 112.53809849 129.75 117.0625 C129.17636719 117.75666016 128.60273438 118.45082031 128.01171875 119.16601562 C124.83983209 122.97011205 121.56297893 126.56055501 118 130 C117.67 130.33 117.34 130.66 117 131 C111.04434019 131.70066586 111.04434019 131.70066586 108.31518555 129.86962891 C106.87679036 128.5797526 105.43839518 127.2898763 104 126 C104.04713135 127.22009766 104.04713135 127.22009766 104.09521484 128.46484375 C104.9939562 155.43466889 100.25719083 177.84720523 89.41015625 202.6328125 C88.94480469 203.70273437 88.47945313 204.77265625 88 205.875 C87.5875 206.77992188 87.175 207.68484375 86.75 208.6171875 C85.92628957 211.23418418 86.0559344 212.46282371 87 215 C85.35 215 83.7 215 82 215 C81.73316406 215.72058594 81.46632813 216.44117188 81.19140625 217.18359375 C78.09569495 224.50165225 73.14533183 230.86547309 68.25 237.0625 C64.3537519 242.1402339 62.20717823 246.72822347 61 253 C60.01 253 59.02 253 58 253 C58 252.01 58 251.02 58 250 C56.87407755 250.97810582 55.74934767 251.95758435 54.625 252.9375 C53.88765625 253.57945312 53.1503125 254.22140625 52.390625 254.8828125 C50.82009034 256.27371084 49.26717549 257.68481187 47.734375 259.1171875 C36.81073012 269.28124118 24.787831 277.00213482 11.70068359 284.06738281 C9.60025398 285.21921186 7.55567928 286.45800801 5.5 287.6875 C-6.66886487 294.34377759 -20.12940464 297.52073954 -33.57055664 300.46533203 C-35.18654058 300.82097517 -36.80038131 301.18650448 -38.41186523 301.56201172 C-80.38166652 311.27948274 -127.06560176 300.01582072 -163.2265625 278.0390625 C-173.30273519 271.52544163 -183.57643439 264.16635996 -191.66796875 255.2421875 C-193.09746864 253.73654171 -193.09746864 253.73654171 -196 253 C-196.33 252.01 -196.66 251.02 -197 250 C-198.98 249.67 -200.96 249.34 -203 249 C-203.66 250.32 -204.32 251.64 -205 253 C-204.86110352 252.3702124 -204.72220703 251.7404248 -204.57910156 251.09155273 C-203.67446199 245.88793798 -203.67446199 245.88793798 -204.95898438 240.88720703 C-206.45799989 238.83782076 -208.0560502 236.95388691 -209.75 235.0625 C-221.45793025 220.87290241 -229.51194392 205.1554413 -236 188 C-236.25507324 187.32984863 -236.51014648 186.65969727 -236.77294922 185.96923828 C-241.23728036 174.0291872 -244.26922007 161.79503798 -244 149 C-239.33333333 146.66666667 -234.66666667 144.33333333 -230 142 C-229.90203125 142.56203125 -229.8040625 143.1240625 -229.703125 143.703125 C-228.54932897 150.18825443 -227.31928534 156.65913868 -226.0625 163.125 C-225.82611816 164.37651855 -225.82611816 164.37651855 -225.58496094 165.65332031 C-224.48000491 171.27553143 -222.94045902 176.60956553 -221 182 C-220.79697266 180.87464844 -220.79697266 180.87464844 -220.58984375 179.7265625 C-218.78786922 171.1590908 -215.89184597 163.89552505 -208.87109375 158.3046875 C-201.23576854 153.38320716 -193.28083132 152.9283448 -184.3671875 154.44921875 C-182.56169178 154.90544616 -180.77685499 155.4425553 -179 156 C-179.33 156.99 -179.66 157.98 -180 159 C-180.7425 158.835 -181.485 158.67 -182.25 158.5 C-189.78221345 157.49570487 -197.45947154 156.62236772 -204.25 160.59765625 C-209.30070476 164.64498439 -213.50736853 170.58215864 -214.23535156 177.1105957 C-215.17087232 191.96514777 -215.17087232 191.96514777 -209 205 C-208.23236328 205.95132813 -208.23236328 205.95132813 -207.44921875 206.921875 C-203.10279683 211.12373743 -198.66107707 211.4679441 -192.8125 211.4375 C-188.45853563 211.34896549 -184.25026871 210.99860682 -180 210 C-179.67 210.99 -179.34 211.98 -179 213 C-188.0533252 216.2360822 -195.56330329 216.69096878 -205 215 C-199.814507 222.54879291 -194.46370228 229.85484734 -188.5 236.8125 C-187.98405273 237.41658691 -187.46810547 238.02067383 -186.93652344 238.64306641 C-184.32212885 241.7512715 -184.32212885 241.7512715 -181 244 C-180.34 242.68 -179.68 241.36 -179 240 C-179.33 242.31 -179.66 244.62 -180 247 C-179.41089844 247.26683594 -178.82179688 247.53367187 -178.21484375 247.80859375 C-175.9601915 249.02141374 -174.42042245 250.31216326 -172.5625 252.0625 C-152.29012235 270.09483592 -126.34955307 281.42496367 -100 287 C-99.14494873 287.18473877 -98.28989746 287.36947754 -97.40893555 287.55981445 C-88.23650022 289.32541543 -79.1203732 289.44003072 -69.8125 289.4375 C-68.97739899 289.4385675 -68.14229797 289.43963501 -67.28189087 289.44073486 C-52.73462121 289.41398749 -39.04297895 288.01879937 -25 284 C-24.22543457 283.78069824 -23.45086914 283.56139648 -22.65283203 283.33544922 C-5.84064753 278.37977107 10.93611661 270.45184776 25 260 C26.26511126 259.12425738 27.53077002 258.24930533 28.796875 257.375 C35.59159091 252.83374422 35.59159091 252.83374422 40.10546875 246.296875 C40.48463499 243.59223358 40.48463499 243.59223358 40 240 C41.27875 240.061875 42.5575 240.12375 43.875 240.1875 C49.98713417 239.49664653 52.76441537 235.73545068 56.55859375 231.2109375 C60.34392882 226.33567919 63.68981533 221.21047587 67 216 C62.71 215.67 58.42 215.34 54 215 C54 195.2 54 175.4 54 155 C63.9 155 73.8 155 84 155 C84 155.99 84 156.98 84 158 C75.42 158 66.84 158 58 158 C58 166.25 58 174.5 58 183 C64.93 183 71.86 183 79 183 C79 183.66 79 184.32 79 185 C72.07 185 65.14 185 58 185 C58 193.58 58 202.16 58 211 C62.29 210.67 66.58 210.34 71 210 C85.91007979 180.11984011 93.05518209 153.60754964 92 120 C91.319375 120.74830078 91.319375 120.74830078 90.625 121.51171875 C90.08875 122.00285156 89.5525 122.49398437 89 123 C85.9582904 122.71483972 84.60954198 121.73969465 82 120 C81.75636719 120.70382812 81.51273437 121.40765625 81.26171875 122.1328125 C76.43156126 133.1090837 65.87665136 144.75384131 55 150 C52.3984375 150.30859375 52.3984375 150.30859375 50 150 C47.48103932 147.82453396 45.4949015 145.989803 44 143 C43.16139907 131.04993673 49.23305985 120.64398965 54 110 C50.7 109.34 47.4 108.68 44 108 C43.3709375 108.82242188 42.741875 109.64484375 42.09375 110.4921875 C19.16787299 140.41606351 19.16787299 140.41606351 12 144 C6.27286952 144.55068562 3.48243055 143.56556975 -1 140 C-1.598125 139.566875 -2.19625 139.13375 -2.8125 138.6875 C-4.69122063 136.0177391 -4.6994456 133.18587661 -5 130 C-4.34 130 -3.68 130 -3 130 C-2.67 125.38 -2.34 120.76 -2 116 C-2.99 117.98 -2.99 117.98 -4 120 C-4.66 120 -5.32 120 -6 120 C-6.09667969 120.54785156 -6.19335938 121.09570312 -6.29296875 121.66015625 C-7.18719241 124.61949311 -8.63283686 126.84427275 -10.3125 129.4375 C-10.90675781 130.36433594 -11.50101563 131.29117188 -12.11328125 132.24609375 C-14.78176742 136.14108909 -17.04684055 139.36456037 -21 142 C-24.47162189 142.53409568 -26.88847486 142.68883248 -29.94140625 140.796875 C-33.71620772 137.67616231 -36.65053313 134.87282325 -37.265625 129.81640625 C-37.23460982 125.34246588 -36.90303151 122.10654167 -35 118 C-34.55242089 116.41948627 -34.11620902 114.83573619 -33.6875 113.25 C-32.39743199 108.85204087 -30.5866789 105.1817077 -28.2734375 101.2421875 C-24.52978914 94.9571876 -24.52978914 94.9571876 -23 88 C-27.95678947 93.4577416 -32.69425645 99.02917152 -37.23828125 104.8359375 C-39 107 -39 107 -40.43212891 108.37963867 C-42.16068105 110.16606044 -43.47105785 112.02062017 -44.84765625 114.08984375 C-45.37037109 114.87423828 -45.89308594 115.65863281 -46.43164062 116.46679688 C-46.96982422 117.28212891 -47.50800781 118.09746094 -48.0625 118.9375 C-48.60455078 119.74896484 -49.14660156 120.56042969 -49.70507812 121.39648438 C-52.00570874 124.86307117 -54.20222992 128.24112231 -56 132 C-58.64213132 132.21422686 -60.41516867 132.33418933 -62.75 131 C-64.70078228 127.87874835 -64.60382221 124.6389664 -65 121 C-66.07314453 122.56234375 -66.07314453 122.56234375 -67.16796875 124.15625 C-68.17366194 125.60473441 -69.18024252 127.05260294 -70.1875 128.5 C-70.71545166 129.26521973 -71.24340332 130.03043945 -71.78735352 130.81884766 C-74.60776886 134.84257958 -77.49991335 138.65774069 -80.796875 142.3046875 C-87.11893277 148.74608608 -87.11893277 148.74608608 -90.39453125 156.8125 C-89.6371087 159.82382842 -88.43399123 162.24371032 -87 165 C-86.20061907 166.97422866 -85.45789273 168.96568196 -84.71264648 170.9609375 C-83.85047646 173.25268645 -82.95058747 175.52667512 -82.04296875 177.80078125 C-79.25649436 184.8338371 -76.64571724 191.93341865 -74.02099609 199.02807617 C-73.65699707 200.00623291 -73.29299805 200.98438965 -72.91796875 201.9921875 C-72.59594482 202.86214355 -72.2739209 203.73209961 -71.94213867 204.62841797 C-71.05042311 206.99584334 -71.05042311 206.99584334 -69.88012695 209.12548828 C-69 211 -69 211 -69 214 C-70.32 214.33 -71.64 214.66 -73 215 C-73.81690177 212.77236012 -74.62861872 210.5430514 -75.4375 208.3125 C-75.66759766 207.68666016 -75.89769531 207.06082031 -76.13476562 206.41601562 C-77.39986778 202.91406618 -78.26435953 199.67820235 -79 196 C-92.365 196.495 -92.365 196.495 -106 197 C-107.98 202.94 -109.96 208.88 -112 215 C-113.65 215 -115.3 215 -117 215 C-116.56808366 213.47757149 -116.12912438 211.95714081 -115.6875 210.4375 C-115.44386719 209.59058594 -115.20023438 208.74367188 -114.94921875 207.87109375 C-114.04896652 205.14810861 -112.9596818 202.56475855 -111.80981445 199.93969727 C-110.27967071 196.27464087 -109.03718672 192.50567807 -107.75 188.75 C-104.30070338 178.78266413 -100.67877244 168.88460436 -97 159 C-97.886875 158.95875 -98.77375 158.9175 -99.6875 158.875 C-103.25636936 157.93227979 -104.85856054 156.75196171 -107.05810547 153.78808594 C-108.70180329 150.66770158 -108.69241571 147.55311117 -108.5625 144.125 C-108.55025391 143.39482666 -108.53800781 142.66465332 -108.52539062 141.91235352 C-108.23313695 133.99346845 -106.27667573 126.55165208 -104 119 C-107.56317369 121.8272342 -111.02831959 124.73433756 -114.44921875 127.73046875 C-117.84534126 130.5106698 -120.69841357 130.37082642 -125 130 C-127.4375 128.6875 -127.4375 128.6875 -129 126 C-129.332621 122.30845213 -129.2111945 118.69590379 -129 115 C-129 114.34 -129 113.68 -129 113 C-129.56847656 113.71285156 -130.13695312 114.42570312 -130.72265625 115.16015625 C-141.74102813 128.82735209 -141.74102813 128.82735209 -148 133 C-150.04296875 133.1953125 -150.04296875 133.1953125 -152.1875 133.125 C-153.445625 133.08375 -154.70375 133.0425 -156 133 C-160.35749068 125.73751554 -159.34242265 119.51884867 -157.4375 111.6875 C-157.293125 111.130625 -157.14875 110.57375 -157 110 C-161.83119934 109.52340138 -161.83119934 109.52340138 -166.0625 111.5 C-168.18129798 114.23393287 -170.24329168 117.00680913 -172.30859375 119.78125 C-177.94892167 127.18010972 -183.72051537 134.65016179 -193.359375 136.4375 C-198.6838286 136.7233767 -201.93013346 135.60738171 -206 132 C-209.94374614 128.25448449 -211.39117667 124.81476164 -211.75 119.375 C-211.35016803 110.00246813 -205.88975448 101.16810998 -199.61328125 94.3671875 C-196.412787 91.65490424 -192.29130608 89 -188 89 C-187.814375 88.01 -187.62875 87.02 -187.4375 86 C-186.04424751 81.01683416 -182.65534513 77.53464977 -179 74 C-176.08225221 72.54112611 -174.25271895 72.63176767 -171 73 C-166.85653673 75.19463097 -163.44422614 77.96738952 -161 82 C-159.73646885 90.22534 -161.66080232 98.14697921 -164 106 C-158.20446067 104.47681338 -154.22397439 103.37329065 -151 98 C-150.3471768 96.67007506 -149.70179565 95.33648028 -149.0625 94 C-147.22623613 90.24918194 -145.45542601 87.49112107 -142 85 C-135.79310345 85.20689655 -135.79310345 85.20689655 -134 87 C-134.1714694 91.20100039 -134.76942402 93.95062767 -137.125 97.4375 C-139.83315474 101.46805778 -141.7992227 105.69420767 -143.75 110.125 C-144.05566895 110.80618896 -144.36133789 111.48737793 -144.67626953 112.18920898 C-146.38206295 116.11980475 -147.4915603 119.7050225 -148 124 C-142.48236731 122.02892973 -139.23106586 119.68681128 -135.5625 115.0625 C-135.09513428 114.49418457 -134.62776855 113.92586914 -134.14624023 113.34033203 C-130.31836182 108.60442089 -126.96540803 103.63540905 -123.75390625 98.4609375 C-121.99924644 95.99894267 -120.62195359 94.4917134 -118 93 C-114.25 93.3125 -114.25 93.3125 -111 94 C-109.35294198 98.86544727 -110.98076001 102.37091824 -112.875 106.875 C-114.9839609 111.96924801 -116.43952009 116.49579991 -117 122 C-103.82828769 113.75569681 -97.22236769 102.17306923 -93.08984375 87.56640625 C-91.58447385 82.64023164 -89.79083822 77.82848999 -88 73 C-88.77190674 73.00523682 -89.54381348 73.01047363 -90.33911133 73.01586914 C-93.83023263 73.03663242 -97.32134095 73.04965811 -100.8125 73.0625 C-102.63491211 73.07506836 -102.63491211 73.07506836 -104.49414062 73.08789062 C-106.23920898 73.09272461 -106.23920898 73.09272461 -108.01953125 73.09765625 C-109.09307861 73.10289307 -110.16662598 73.10812988 -111.27270508 73.11352539 C-114 73 -114 73 -117 72 C-117 71.34 -117 70.68 -117 70 C-113.02928486 68.1463492 -109.75195258 67.70553295 -105.38671875 67.5859375 C-104.13955078 67.54726563 -102.89238281 67.50859375 -101.60742188 67.46875 C-100.31384766 67.4378125 -99.02027344 67.406875 -97.6875 67.375 C-96.37458984 67.33632813 -95.06167969 67.29765625 -93.70898438 67.2578125 C-90.47279563 67.16366883 -87.23661065 67.07803648 -84 67 C-83.86045898 66.23341064 -83.72091797 65.46682129 -83.57714844 64.67700195 C-81.2690426 53.97125724 -72.79014869 40.79014869 -65 33 C-63.189715 32.90120435 -61.37547273 32.87028486 -59.5625 32.875 C-58.57378906 32.87242187 -57.58507812 32.86984375 -56.56640625 32.8671875 C-54 33 -54 33 -52 34 C-52.2921744 38.67479038 -54.54627041 41.23229577 -57.3203125 44.76953125 C-62.47717668 51.61736718 -66.26774976 59.31595539 -70 67 C-60.1 66.505 -60.1 66.505 -50 66 C-49.67 64.35 -49.34 62.7 -49 61 C-47.81974835 58.4789374 -46.60501407 56.0239222 -45.3125 53.5625 C-42.70944308 48.53061103 -40.39391994 43.55202339 -38.375 38.25 C-32.80960199 24.91144278 -22.72726261 10.34927377 -11.625 1 C-7.85483056 -0.43625503 -3.95936009 -0.94164556 0 0 Z " fill="#FEDE5A" transform="translate(348,227)"/>
<path d="M0 0 C0.33 0 0.66 0 1 0 C4.32236608 35.72427141 2.89630244 64.53179049 -11.58984375 97.6328125 C-12.05519531 98.70273437 -12.52054687 99.77265625 -13 100.875 C-13.4125 101.77992188 -13.825 102.68484375 -14.25 103.6171875 C-15.07371043 106.23418418 -14.9440656 107.46282371 -14 110 C-15.65 110 -17.3 110 -19 110 C-19.26683594 110.72058594 -19.53367187 111.44117188 -19.80859375 112.18359375 C-22.90430505 119.50165225 -27.85466817 125.86547309 -32.75 132.0625 C-36.6462481 137.1402339 -38.79282177 141.72822347 -40 148 C-40.99 148 -41.98 148 -43 148 C-43 147.01 -43 146.02 -43 145 C-44.12592245 145.97810582 -45.25065233 146.95758435 -46.375 147.9375 C-47.11234375 148.57945312 -47.8496875 149.22140625 -48.609375 149.8828125 C-50.17990966 151.27371084 -51.73282451 152.68481187 -53.265625 154.1171875 C-64.18926988 164.28124118 -76.212169 172.00213482 -89.29931641 179.06738281 C-91.39974602 180.21921186 -93.44432072 181.45800801 -95.5 182.6875 C-107.66886487 189.34377759 -121.12940464 192.52073954 -134.57055664 195.46533203 C-136.18654058 195.82097517 -137.80038131 196.18650448 -139.41186523 196.56201172 C-181.38166652 206.27948274 -228.06560176 195.01582072 -264.2265625 173.0390625 C-274.30273519 166.52544163 -284.57643439 159.16635996 -292.66796875 150.2421875 C-294.09746864 148.73654171 -294.09746864 148.73654171 -297 148 C-297.33 147.01 -297.66 146.02 -298 145 C-299.98 144.67 -301.96 144.34 -304 144 C-304.66 145.32 -305.32 146.64 -306 148 C-305.86110352 147.3702124 -305.72220703 146.7404248 -305.57910156 146.09155273 C-304.67446199 140.88793798 -304.67446199 140.88793798 -305.95898438 135.88720703 C-307.45799989 133.83782076 -309.0560502 131.95388691 -310.75 130.0625 C-322.45793025 115.87290241 -330.51194392 100.1554413 -337 83 C-337.25507324 82.32984863 -337.51014648 81.65969727 -337.77294922 80.96923828 C-342.23728036 69.0291872 -345.26922007 56.79503798 -345 44 C-340.33333333 41.66666667 -335.66666667 39.33333333 -331 37 C-330.90203125 37.56203125 -330.8040625 38.1240625 -330.703125 38.703125 C-329.54932897 45.18825443 -328.31928534 51.65913868 -327.0625 58.125 C-326.90491211 58.9593457 -326.74732422 59.79369141 -326.58496094 60.65332031 C-325.48000491 66.27553143 -323.94045902 71.60956553 -322 77 C-321.86464844 76.24976563 -321.72929687 75.49953125 -321.58984375 74.7265625 C-319.78786922 66.1590908 -316.89184597 58.89552505 -309.87109375 53.3046875 C-302.23576854 48.38320716 -294.28083132 47.9283448 -285.3671875 49.44921875 C-283.56169178 49.90544616 -281.77685499 50.4425553 -280 51 C-280.33 51.99 -280.66 52.98 -281 54 C-281.7425 53.835 -282.485 53.67 -283.25 53.5 C-290.78221345 52.49570487 -298.45947154 51.62236772 -305.25 55.59765625 C-310.30070476 59.64498439 -314.50736853 65.58215864 -315.23535156 72.1105957 C-316.17087232 86.96514777 -316.17087232 86.96514777 -310 100 C-309.23236328 100.95132813 -309.23236328 100.95132813 -308.44921875 101.921875 C-304.10279683 106.12373743 -299.66107707 106.4679441 -293.8125 106.4375 C-289.45853563 106.34896549 -285.25026871 105.99860682 -281 105 C-280.67 105.99 -280.34 106.98 -280 108 C-289.0533252 111.2360822 -296.56330329 111.69096878 -306 110 C-300.814507 117.54879291 -295.46370228 124.85484734 -289.5 131.8125 C-288.98405273 132.41658691 -288.46810547 133.02067383 -287.93652344 133.64306641 C-285.32212885 136.7512715 -285.32212885 136.7512715 -282 139 C-281.34 137.68 -280.68 136.36 -280 135 C-280.33 137.31 -280.66 139.62 -281 142 C-280.41089844 142.26683594 -279.82179688 142.53367187 -279.21484375 142.80859375 C-276.9601915 144.02141374 -275.42042245 145.31216326 -273.5625 147.0625 C-253.29012235 165.09483592 -227.34955307 176.42496367 -201 182 C-200.14494873 182.18473877 -199.28989746 182.36947754 -198.40893555 182.55981445 C-189.23650022 184.32541543 -180.1203732 184.44003072 -170.8125 184.4375 C-169.55984848 184.43910126 -169.55984848 184.43910126 -168.28189087 184.44073486 C-153.73462121 184.41398749 -140.04297895 183.01879937 -126 179 C-125.22543457 178.78069824 -124.45086914 178.56139648 -123.65283203 178.33544922 C-106.84064753 173.37977107 -90.06388339 165.45184776 -76 155 C-74.73488874 154.12425738 -73.46922998 153.24930533 -72.203125 152.375 C-65.40840909 147.83374422 -65.40840909 147.83374422 -60.89453125 141.296875 C-60.51536501 138.59223358 -60.51536501 138.59223358 -61 135 C-59.72125 135.061875 -58.4425 135.12375 -57.125 135.1875 C-51.01286583 134.49664653 -48.23558463 130.73545068 -44.44140625 126.2109375 C-40.65607118 121.33567919 -37.31018467 116.21047587 -34 111 C-38.29 110.67 -42.58 110.34 -47 110 C-47 90.2 -47 70.4 -47 50 C-37.1 50 -27.2 50 -17 50 C-17 50.99 -17 51.98 -17 53 C-25.58 53 -34.16 53 -43 53 C-43 61.25 -43 69.5 -43 78 C-36.07 78 -29.14 78 -22 78 C-22 78.66 -22 79.32 -22 80 C-28.93 80 -35.86 80 -43 80 C-43 88.58 -43 97.16 -43 106 C-38.71 105.67 -34.42 105.34 -30 105 C-18.59301002 82.14011667 -9.170885 59.45799013 -8.8203125 33.515625 C-8.80274902 32.23679443 -8.78518555 30.95796387 -8.76708984 29.64038086 C-8.75601279 27.1592794 -8.78265099 24.67760974 -8.85400391 22.19750977 C-8.86831787 12.89538521 -6.02341281 7.07549148 0 0 Z " fill="#FB65C1" transform="translate(449,332)"/>
<path d="M0 0 C2.3125 1.5 2.3125 1.5 4 4 C4.72368729 10.91272125 2.882938 15.14913464 -0.3125 21.1875 C-5.37294467 31.27406461 -7.89634824 40.74275204 -9 52 C-2.98187642 48.69593215 1.29649159 43.92245182 6 39 C6.91072266 38.07960938 6.91072266 38.07960938 7.83984375 37.140625 C11.41743137 33.31724892 13.08132837 29.57086194 14.8828125 24.6875 C18.35308861 16.3394232 23.7075205 8.14623975 32 4 C36.57758127 3.44153508 40.57370819 3.30726568 44.5 5.9375 C47.98050139 8.80891365 47.98050139 8.80891365 48.3125 12.0625 C47.74854537 19.16832831 44.92650525 23.43111169 39.75 28.25 C34.89616723 32.32689914 30.03147799 34.98950734 24 37 C22.16282685 44.41430591 21.76423264 51.37685526 22 59 C31.35889907 57.57757665 37.2831028 49.98521545 43 43 C43.52916016 42.37061523 44.05832031 41.74123047 44.60351562 41.09277344 C46.40674927 38.93551227 48.1744477 36.75268228 49.9375 34.5625 C50.51781982 33.87115967 51.09813965 33.17981934 51.69604492 32.4675293 C55.4156133 27.74141798 56.69325483 24.2168351 56.83569336 18.18554688 C57 16 57 16 58.625 12.9375 C61.75790792 10.3817067 63.99459806 10.07282549 68 10 C68.99 10.66 69.98 11.32 71 12 C70.67 13.32 70.34 14.64 70 16 C69.34 16 68.68 16 68 16 C67.34 18.64 66.68 21.28 66 24 C66.97582031 24.03738281 67.95164062 24.07476562 68.95703125 24.11328125 C70.22933594 24.17902344 71.50164062 24.24476563 72.8125 24.3125 C74.07707031 24.37050781 75.34164062 24.42851562 76.64453125 24.48828125 C80 25 80 25 82.01171875 26.23046875 C83 28 83 28 82.89453125 30.20703125 C81.73834181 33.81696772 80.25232177 37.24138939 78.6875 40.6875 C78.05232929 42.11411358 77.41821246 43.54119685 76.78515625 44.96875 C76.47852051 45.65839844 76.17188477 46.34804688 75.85595703 47.05859375 C74.74132247 49.58670956 73.66902479 52.12944663 72.625 54.6875 C72.32851563 55.41324219 72.03203125 56.13898438 71.7265625 56.88671875 C70.91959547 59.2338648 70.43603917 61.55903564 70 64 C76.63339744 60.36084446 80.73236402 56.23782691 84.94921875 49.984375 C87 47 87 47 89.39453125 44.078125 C94.40185865 37.96255228 96.8891046 33.22085469 98.2578125 25.44921875 C99.64513247 19.00183174 102.43579026 13.05696339 105 7 C105.36996094 6.05125 105.73992187 5.1025 106.12109375 4.125 C107 2 107 2 108 1 C114.6 1.6 114.6 1.6 117 4 C116.70223742 7.87091353 115.71973492 9.38905448 113 12 C111.17685344 15.78757015 110.65030758 19.13700168 110.375 23.3125 C110.30023438 24.38113281 110.22546875 25.44976562 110.1484375 26.55078125 C110.07496094 27.76314453 110.07496094 27.76314453 110 29 C110.47308594 28.33355469 110.94617188 27.66710937 111.43359375 26.98046875 C124.67958213 8.51871107 124.67958213 8.51871107 130 4 C133.11811483 3.61023565 135.11019567 3.49577755 137.875 5.0625 C139.68064102 8.17221509 139.41842214 10.47329912 139 14 C137.3125 17 137.3125 17 135 20 C131.92595345 24.01234564 129.74557722 26.90522233 129 32 C128.52134298 33.32043315 128.01906499 34.63242231 127.5 35.9375 C126.20413935 39.26881005 125.4451962 42.4384304 125 46 C129.68439711 43.0177197 133.87146532 39.69957343 138.0625 36.0625 C138.66126953 35.55009766 139.26003906 35.03769531 139.87695312 34.50976562 C142.63067276 32.13607739 145.28843814 29.7428313 147.80859375 27.12109375 C150 25 150 25 152 25 C151.72772291 31.21375207 148.61116058 34.53809849 144.75 39.0625 C144.17636719 39.75666016 143.60273438 40.45082031 143.01171875 41.16601562 C139.83983209 44.97011205 136.56297893 48.56055501 133 52 C132.67 52.33 132.34 52.66 132 53 C128.69795684 53.46228604 126.1389452 53.61755807 123.14086914 51.99194336 C119.43623824 49.09532045 117.59033246 46.98832875 116.87890625 42.2578125 C116.74090225 40.54919151 116.63600804 38.83760835 116.5625 37.125 C116.46678711 35.80628906 116.46678711 35.80628906 116.36914062 34.4609375 C116.21711169 32.30914334 116.10453126 30.15462389 116 28 C115.72325439 28.47945068 115.44650879 28.95890137 115.16137695 29.45288086 C113.89509974 31.62465828 112.60430906 33.7808202 111.3125 35.9375 C110.87744141 36.69224609 110.44238281 37.44699219 109.99414062 38.22460938 C106.66057869 43.73115984 106.66057869 43.73115984 103.3125 45.09375 C100.35685968 44.97392674 99.13710262 43.97879873 97 42 C96.75636719 42.70382812 96.51273437 43.40765625 96.26171875 44.1328125 C91.43156126 55.1090837 80.87665136 66.75384131 70 72 C67.3984375 72.30859375 67.3984375 72.30859375 65 72 C62.48103932 69.82453396 60.4949015 67.989803 59 65 C58.16139907 53.04993673 64.23305985 42.64398965 69 32 C64.05 31.01 64.05 31.01 59 30 C58.05640625 31.23363281 58.05640625 31.23363281 57.09375 32.4921875 C34.16787299 62.41606351 34.16787299 62.41606351 27 66 C21.27286952 66.55068562 18.48243055 65.56556975 14 62 C13.401875 61.566875 12.80375 61.13375 12.1875 60.6875 C10.30877937 58.0177391 10.3005544 55.18587661 10 52 C10.66 52 11.32 52 12 52 C12.33 47.38 12.66 42.76 13 38 C12.34 39.32 11.68 40.64 11 42 C10.34 42 9.68 42 9 42 C8.90332031 42.54785156 8.80664062 43.09570312 8.70703125 43.66015625 C7.81280759 46.61949311 6.36716314 48.84427275 4.6875 51.4375 C4.09324219 52.36433594 3.49898438 53.29117188 2.88671875 54.24609375 C0.21823258 58.14108909 -2.04684055 61.36456037 -6 64 C-9.47162189 64.53409568 -11.88847486 64.68883248 -14.94140625 62.796875 C-18.71620772 59.67616231 -21.65053313 56.87282325 -22.265625 51.81640625 C-22.23460982 47.34246588 -21.90303151 44.10654167 -20 40 C-19.55242089 38.41948627 -19.11620902 36.83573619 -18.6875 35.25 C-17.39743199 30.85204087 -15.5866789 27.1817077 -13.2734375 23.2421875 C-9.52978914 16.9571876 -9.52978914 16.9571876 -8 10 C-12.95678947 15.4577416 -17.69425645 21.02917152 -22.23828125 26.8359375 C-23.74475367 28.68646016 -25.27919076 30.35252069 -27 32 C-27.556875 32.556875 -28.11375 33.11375 -28.6875 33.6875 C-29.120625 34.120625 -29.55375 34.55375 -30 35 C-30.90234375 32.51953125 -30.90234375 32.51953125 -31 29 C-29.24431778 25.9005007 -26.92296513 23.34191653 -24.5625 20.6875 C-23.91812988 19.93710449 -23.27375977 19.18670898 -22.60986328 18.41357422 C-20.7553958 16.26160856 -18.87956445 14.13003331 -17 12 C-16.15050781 11.00871094 -15.30101562 10.01742188 -14.42578125 8.99609375 C-5.77141835 -1.00999821 -5.77141835 -1.00999821 0 0 Z " fill="#FFDE5A" transform="translate(333,305)"/>
<path d="M0 0 C0.71281631 -0.00428009 1.42563263 -0.00856018 2.16004944 -0.01296997 C4.45702469 -0.02292081 6.7537886 -0.02302857 9.05078125 -0.01953125 C9.83739136 -0.01859467 10.62400146 -0.01765808 11.43444824 -0.01669312 C41.24572906 0.06036706 70.15828812 4.47170563 97.36328125 17.16796875 C98.34184082 17.61897949 99.32040039 18.06999023 100.32861328 18.53466797 C142.15855411 37.88821306 142.15855411 37.88821306 155.36328125 53.16796875 C155.36328125 54.15796875 155.36328125 55.14796875 155.36328125 56.16796875 C152.1678146 54.72856936 149.77356097 52.93757802 147.11328125 50.66796875 C130.11026984 36.95666115 109.93679454 27.42877832 89.22558594 20.76757812 C87.50820101 20.21462881 85.79858894 19.63769116 84.08984375 19.05859375 C77.69943654 16.96601708 71.24411922 15.39098954 64.67578125 13.98046875 C63.90379395 13.81337402 63.13180664 13.6462793 62.33642578 13.47412109 C20.58365835 4.8573438 -21.93808279 14.87209666 -57.63671875 37.16796875 C-66.71707714 43.24056245 -74.74617119 50.65316155 -82.63671875 58.16796875 C-83.35472656 58.833125 -84.07273438 59.49828125 -84.8125 60.18359375 C-90.84696044 65.93991273 -95.64254077 72.50906478 -100.63671875 79.16796875 C-105.91671875 77.84796875 -111.19671875 76.52796875 -116.63671875 75.16796875 C-93.76594534 39.39573342 -56.1860564 11.21473482 -14.63671875 1.16796875 C-9.71813557 0.34951771 -4.98390574 0.02867326 0 0 Z " fill="#FF67C4" transform="translate(247.63671875,182.83203125)"/>
<path d="M0 0 C3.92060047 1.93848449 7.44845822 4.19769769 9.45703125 8.21484375 C10.31142579 12.82857427 10.15015312 15.04500457 7.73046875 19.12890625 C-4.14076994 35.24278695 -4.14076994 35.24278695 -11.04296875 37.21484375 C-11.86796875 37.21484375 -12.69296875 37.21484375 -13.54296875 37.21484375 C-11.67597032 32.08059808 -9.43571966 27.05023857 -5.48046875 23.21484375 C-2.05921176 19.68322363 -0.71457763 15.7307222 -0.16796875 10.90234375 C-0.29171875 10.01546875 -0.41546875 9.12859375 -0.54296875 8.21484375 C-4.31138448 5.7025666 -7.18799922 5.51169763 -11.54296875 6.21484375 C-18.14088548 8.41043428 -21.88490879 12.06951091 -25.12109375 18.1328125 C-26.83017525 21.83738751 -28.46485945 25.551921 -29.98046875 29.33984375 C-30.25205811 29.99637939 -30.52364746 30.65291504 -30.8034668 31.3293457 C-33.09818011 37.43055658 -32.76088386 42.15454113 -30.31640625 48.296875 C-29.85492188 49.19792969 -29.3934375 50.09898437 -28.91796875 51.02734375 C-27.50390625 53.796875 -27.50390625 53.796875 -26.54296875 56.21484375 C-26.87296875 57.20484375 -27.20296875 58.19484375 -27.54296875 59.21484375 C-26.34902983 61.56144962 -25.11857797 63.73823201 -23.73046875 65.96484375 C-18.53166903 74.34824854 -16.31170602 82.27588789 -17.54296875 92.21484375 C-18.76860263 95.87070447 -20.48479303 98.96567034 -22.54296875 102.21484375 C-23.15978516 103.29765625 -23.15978516 103.29765625 -23.7890625 104.40234375 C-28.80070065 112.25440589 -37.8347777 115.77610482 -46.54296875 118.21484375 C-54.35537154 118.9127034 -61.53154584 118.91177583 -68.54296875 115.21484375 C-71.64208916 112.57729447 -73.25632753 111.0747674 -74.54296875 107.21484375 C-74.61195975 105.15339268 -74.62764602 103.08982974 -74.60546875 101.02734375 C-74.59193359 99.39732422 -74.59193359 99.39732422 -74.578125 97.734375 C-74.56652344 96.90292969 -74.55492188 96.07148438 -74.54296875 95.21484375 C-73.88296875 95.54484375 -73.22296875 95.87484375 -72.54296875 96.21484375 C-72.43755949 94.00402524 -72.43755949 94.00402524 -73.54296875 91.21484375 C-70.66524665 84.32757579 -65.83600505 78.26707608 -59.54296875 74.21484375 C-58.55296875 74.21484375 -57.56296875 74.21484375 -56.54296875 74.21484375 C-56.98649272 79.4262504 -58.33147195 83.39472353 -60.60546875 88.1015625 C-62.91631214 93.31058864 -63.07105907 98.58795037 -62.54296875 104.21484375 C-60.84893786 107.99849907 -60.84893786 107.99849907 -57.54296875 110.21484375 C-51.33298999 110.27926262 -45.55297807 108.9621678 -40.54296875 105.21484375 C-35.30489566 99.60556863 -30.93218509 94.05018684 -31.08984375 86.1015625 C-32.12148127 79.52932002 -35.03246868 73.34279776 -37.54296875 67.21484375 C-38.23084211 65.46499047 -38.91840616 63.71501553 -39.60546875 61.96484375 C-40.64441343 59.37834967 -41.71701938 56.8143686 -42.828125 54.2578125 C-47.28959051 43.91709798 -51.07153818 32.87872378 -47.7734375 21.578125 C-42.87024741 10.54161586 -33.71290654 3.34357339 -22.99609375 -1.5625 C-14.80529065 -4.4626373 -7.92731749 -3.18680431 0 0 Z " fill="#FFDD5A" transform="translate(144.54296875,260.78515625)"/>
<path d="M0 0 C4.14346327 2.19463097 7.55577386 4.96738952 10 9 C11.26353115 17.22534 9.33919768 25.14697921 7 33 C9.31 32.67 11.62 32.34 14 32 C14.495 33.98 14.495 33.98 15 36 C14.35933594 36.02835937 13.71867187 36.05671875 13.05859375 36.0859375 C8.96343043 36.53756505 6.00615595 36.94023738 3.09375 40.0078125 C1.95640978 41.71918765 0.84970949 43.45120197 -0.23046875 45.19921875 C-5.03127762 52.79785 -11.30418736 60.01128374 -20 63 C-24.70097621 63.86535383 -27.93339845 63.51278921 -32.25 61.4375 C-37.42376621 56.85166176 -40.27906346 53.51439799 -40.75 46.375 C-40.35016803 37.00246813 -34.88975448 28.16810998 -28.61328125 21.3671875 C-25.412787 18.65490424 -21.29130608 16 -17 16 C-16.814375 15.01 -16.62875 14.02 -16.4375 13 C-15.04424751 8.01683416 -11.65534513 4.53464977 -8 1 C-5.08225221 -0.45887389 -3.25271895 -0.36823233 0 0 Z " fill="#FFDE5A" transform="translate(177,300)"/>
<path d="M0 0 C-1.98176813 8.07207994 -4.06857773 16.11349958 -6.19799805 24.14770508 C-6.40207275 24.91880615 -6.60614746 25.68990723 -6.81640625 26.484375 C-7.01886963 27.23992676 -7.22133301 27.99547852 -7.42993164 28.77392578 C-7.80245026 30.22858307 -8.14674297 31.69083998 -8.45874023 33.15966797 C-9.47105461 37.8352018 -10.96670013 40.89672674 -13.9375 44.625 C-14.741875 45.64722656 -15.54625 46.66945313 -16.375 47.72265625 C-16.80296875 48.2552002 -17.2309375 48.78774414 -17.671875 49.33642578 C-19.03224676 51.04039144 -20.36241433 52.76457826 -21.6875 54.49609375 C-27.45471094 61.99891746 -33.48215386 69.1295092 -40 76 C-40.5465625 76.59425781 -41.093125 77.18851562 -41.65625 77.80078125 C-43 79 -43 79 -45 79 C-45.26046574 72.08005889 -44.37989159 66.13432748 -42.6875 59.4375 C-42.47416016 58.54353516 -42.26082031 57.64957031 -42.04101562 56.72851562 C-40.71484053 51.3169295 -39.06957447 46.16935278 -37 41 C-36.61199219 39.97777344 -36.22398437 38.95554687 -35.82421875 37.90234375 C-33.08418802 30.75566567 -30.27761799 23.63849698 -27.41796875 16.5390625 C-26.53307591 14.33048697 -25.65881471 12.11758594 -24.80078125 9.8984375 C-24.45402344 9.00382812 -24.10726563 8.10921875 -23.75 7.1875 C-23.45609375 6.41792969 -23.1621875 5.64835937 -22.859375 4.85546875 C-22 3 -22 3 -20 1 C-17.4609375 0.5859375 -17.4609375 0.5859375 -14.375 0.375 C-13.30507813 0.30152344 -12.23515625 0.22804688 -11.1328125 0.15234375 C-7.40985798 -0.02869768 -3.72620088 -0.07165771 0 0 Z " fill="#FFFDFA" transform="translate(296,297)"/>
<path d="M0 0 C0.33 0 0.66 0 1 0 C4.16858675 34.07073465 3.52822942 62.20786227 -10 94 C-10.51940076 95.24560586 -11.03768204 96.49167929 -11.5546875 97.73828125 C-12.41197815 99.79916924 -13.27648228 101.8570919 -14.15234375 103.91015625 C-15.06264432 105.7785775 -15.06264432 105.7785775 -15 107 C-24.24 107 -33.48 107 -43 107 C-43 106.67 -43 106.34 -43 106 C-36.565 105.505 -36.565 105.505 -30 105 C-18.59301002 82.14011667 -9.170885 59.45799013 -8.8203125 33.515625 C-8.79396729 31.59737915 -8.79396729 31.59737915 -8.76708984 29.64038086 C-8.75601279 27.1592794 -8.78265099 24.67760974 -8.85400391 22.19750977 C-8.86831787 12.89538521 -6.02341281 7.07549148 0 0 Z " fill="#FC68C2" transform="translate(449,332)"/>
<path d="M0 0 C9.9 0 19.8 0 30 0 C30 0.99 30 1.98 30 3 C21.42 3 12.84 3 4 3 C4 11.25 4 19.5 4 28 C10.93 28 17.86 28 25 28 C25 28.66 25 29.32 25 30 C18.07 30 11.14 30 4 30 C4 38.91 4 47.82 4 57 C13.57 57 23.14 57 33 57 C33 57.99 33 58.98 33 60 C31.35 60 29.7 60 28 60 C27.73316406 60.72058594 27.46632813 61.44117188 27.19140625 62.18359375 C24.09569495 69.50165225 19.14533183 75.86547309 14.25 82.0625 C10.3537519 87.1402339 8.20717823 91.72822347 7 98 C6.01 98 5.02 98 4 98 C3.32968281 96.0429132 2.66385317 94.08428887 2 92.125 C1.62875 91.03445313 1.2575 89.94390625 0.875 88.8203125 C0 86 0 86 0 84 C-3.37319811 86.21002635 -5.36022273 88.28892512 -7 92 C-6.78150791 95.23556199 -6.78150791 95.23556199 -6 98 C-7.5 96.625 -7.5 96.625 -9 95 C-9 94.34 -9 93.68 -9 93 C-9.99 93 -10.98 93 -12 93 C-12 94.65 -12 96.3 -12 98 C-12.66 98 -13.32 98 -14 98 C-14 93.71 -14 89.42 -14 85 C-12.72125 85.061875 -11.4425 85.12375 -10.125 85.1875 C-4.01286583 84.49664653 -1.23558463 80.73545068 2.55859375 76.2109375 C6.34392882 71.33567919 9.68981533 66.21047587 13 61 C8.71 60.67 4.42 60.34 0 60 C0 40.2 0 20.4 0 0 Z " fill="#E562B3" transform="translate(402,382)"/>
<path d="M0 0 C2.27734375 -0.08984375 2.27734375 -0.08984375 5 1 C6.66473507 3.9774236 7.57057596 7.18484467 8.5625 10.4375 C9.16657754 12.28821509 9.77202812 14.13848263 10.37890625 15.98828125 C10.77444702 17.24185425 10.77444702 17.24185425 11.17797852 18.52075195 C12.27937776 21.84261393 13.5661788 25.07519026 14.90234375 28.30859375 C16.81990121 33.01036275 18.62605345 37.75634068 20.45117188 42.49462891 C21.80281423 45.98738868 23.18523976 49.44432476 24.71484375 52.86328125 C26 56 26 56 26 59 C24.02 59.495 24.02 59.495 22 60 C21.18309823 57.77236012 20.37138128 55.5430514 19.5625 53.3125 C19.33240234 52.68666016 19.10230469 52.06082031 18.86523438 51.41601562 C17.60013222 47.91406618 16.73564047 44.67820235 16 41 C2.635 41.495 2.635 41.495 -11 42 C-12.98 47.94 -14.96 53.88 -17 60 C-18.65 60 -20.3 60 -22 60 C-21.56808366 58.47757149 -21.12912438 56.95714081 -20.6875 55.4375 C-20.44386719 54.59058594 -20.20023438 53.74367188 -19.94921875 52.87109375 C-19.05035371 50.15230444 -17.96247442 47.57377446 -16.81420898 44.95288086 C-15.25880874 41.22225222 -13.997202 37.384684 -12.6875 33.5625 C-8.76962897 22.25314924 -4.77952859 10.97885831 0 0 Z " fill="#161616" transform="translate(253,382)"/>
<path d="M0 0 C0.66 0.66 1.32 1.32 2 2 C1.443125 2.92296875 0.88625 3.8459375 0.3125 4.796875 C-9.97647289 22.2229571 -16.12505598 40.42159577 -21 60 C-23.9579797 56.20141481 -25 53.83924342 -25 49 C-26.25836099 46.06092156 -27.62375631 43.18450917 -29.00390625 40.30078125 C-31.95931843 30.50735658 -25.9460424 19.81884065 -21.5859375 11.20703125 C-16.65272084 2.98041016 -9.62241012 -1.18169949 0 0 Z " fill="#FF67C3" transform="translate(141,266)"/>
<path d="M0 0 C3.375 0.6875 3.375 0.6875 4.375 1.6875 C4.2035306 5.88850039 3.60557598 8.63812767 1.25 12.125 C-1.45815474 16.15555778 -3.4242227 20.38170767 -5.375 24.8125 C-5.68066895 25.49368896 -5.98633789 26.17487793 -6.30126953 26.87670898 C-8.00706295 30.80730475 -9.1165603 34.3925225 -9.625 38.6875 C-3.0841516 36.55171277 0.18151299 33.05363383 4.375 27.6875 C5.365 28.6775 6.355 29.6675 7.375 30.6875 C5.48358512 32.77499458 3.58712032 34.8574937 1.6875 36.9375 C0.89182617 37.81728516 0.89182617 37.81728516 0.08007812 38.71484375 C-7.85331683 47.37830573 -7.85331683 47.37830573 -11.86328125 48.078125 C-14.74414062 47.8828125 -14.74414062 47.8828125 -17.625 47.6875 C-21.11939837 41.86350272 -21.42727006 37.17783584 -19.9453125 30.73046875 C-19.21811787 28.03292297 -18.44934036 25.35679259 -17.625 22.6875 C-18.285 22.3575 -18.945 22.0275 -19.625 21.6875 C-18.625 18.6875 -18.625 18.6875 -16.5 16.75 C-12.80436668 13.26922908 -10.67871866 8.74534124 -8.2734375 4.33203125 C-5.85327459 0.44944763 -4.60315327 -0.39682356 0 0 Z " fill="#FFDE59" transform="translate(209.625,312.3125)"/>
<path d="M0 0 C4.3066406 2.1533203 5.74321304 4.16584091 8.1875 8.0625 C9.05671029 9.40877 9.92796911 10.75371861 10.80078125 12.09765625 C11.29400879 12.85965332 11.78723633 13.62165039 12.29541016 14.40673828 C16.46790314 20.75452122 20.80939946 26.99263904 25.11010742 33.25415039 C25.81369385 34.28403076 26.51728027 35.31391113 27.2421875 36.375 C27.8697998 37.29023438 28.49741211 38.20546875 29.14404297 39.1484375 C31.22793545 42.35020864 33.10464884 45.68313548 35 49 C35.33 32.83 35.66 16.66 36 0 C37.32 0 38.64 0 40 0 C40 19.8 40 39.6 40 60 C39.01 60 38.02 60 37 60 C35.63061523 58.26391602 35.63061523 58.26391602 34.12109375 55.69140625 C30.84683054 50.31699736 27.39826169 45.09836293 23.84765625 39.90234375 C22.7310401 38.26112192 21.61450479 36.6198451 20.49804688 34.97851562 C18.76622772 32.43588911 17.03295571 29.89428846 15.29663086 27.35473633 C13.60119628 24.87337625 11.91150025 22.38819233 10.22265625 19.90234375 C9.69777115 19.13784409 9.17288605 18.37334442 8.63209534 17.5856781 C8.15417038 16.88056595 7.67624542 16.1754538 7.18383789 15.44897461 C6.76082901 14.82929306 6.33782013 14.20961151 5.9019928 13.57115173 C5 12 5 12 5 10 C4.34 10 3.68 10 3 10 C3 26.17 3 42.34 3 59 C2.01 59 1.02 59 0 59 C0 39.53 0 20.06 0 0 Z " fill="#1A1A1A" transform="translate(290,382)"/>
<path d="M0 0 C-0.33 0.99 -0.66 1.98 -1 3 C-2.01513672 2.76603516 -2.01513672 2.76603516 -3.05078125 2.52734375 C-10.87541407 1.12823722 -19.39450023 0.50776608 -26.5625 4.375 C-32.40139096 8.45249219 -35.77674917 14.33024752 -38 21 C-38.75336058 30.48158099 -39.06509104 39.10667577 -33 47 C-27.48568468 52.85951251 -27.48568468 52.85951251 -20.00708008 55.11352539 C-19.26868896 55.10828857 -18.53029785 55.10305176 -17.76953125 55.09765625 C-17.04612549 55.09515869 -16.32271973 55.09266113 -15.57739258 55.09008789 C-14.66497803 55.08098389 -13.75256348 55.07187988 -12.8125 55.0625 C-9.904375 55.041875 -6.99625 55.02125 -4 55 C-4 47.41 -4 39.82 -4 32 C-8.29 32 -12.58 32 -17 32 C-17 31.01 -17 30.02 -17 29 C-11.39 29 -5.78 29 0 29 C0 37.91 0 46.82 0 56 C-8.42366112 59.61014048 -15.79246768 62.06062712 -24.8359375 59.05859375 C-33.42906338 54.94266709 -39.29193088 48.82719764 -42.75 39.875 C-45.34786199 31.32071413 -44.76435083 22.84935786 -41.39453125 14.609375 C-37.61744271 7.54188159 -32.27617319 2.29487088 -25 -1 C-16.66412599 -3.07007538 -8.14752176 -2.50692977 0 0 Z " fill="#252525" transform="translate(387,383)"/>
<path d="M0 0 C1.32 0 2.64 0 4 0 C4 9.24 4 18.48 4 28 C14.56 28 25.12 28 36 28 C36 18.76 36 9.52 36 0 C37.32 0 38.64 0 40 0 C40 19.47 40 38.94 40 59 C38.68 59 37.36 59 36 59 C36 49.76 36 40.52 36 31 C25.44 31 14.88 31 4 31 C4 40.57 4 50.14 4 60 C2.68 60 1.36 60 0 60 C0 40.2 0 20.4 0 0 Z " fill="#070707" transform="translate(181,382)"/>
<path d="M0 0 C0.99 0.33 1.98 0.66 3 1 C2.6712357 8.60481357 1.40599866 14.86402609 -1.6875 21.8125 C-2.07470215 22.69905273 -2.4619043 23.58560547 -2.86083984 24.49902344 C-10.43718733 41.14539955 -21.22903577 56.08886045 -33 70 C-34.13208229 66.60375312 -33.92924895 66.12277653 -32.65625 62.94921875 C-32.32359131 62.11922363 -31.99093262 61.28922852 -31.64819336 60.43408203 C-31.07983765 59.07452393 -31.07983765 59.07452393 -30.5 57.6875 C-29.91714233 56.27380127 -29.91714233 56.27380127 -29.32250977 54.83154297 C-23.57654607 41.23432412 -16.73626376 28.12605303 -10 15 C-9.34 15 -8.68 15 -8 15 C-7.90847656 14.28457031 -7.81695312 13.56914062 -7.72265625 12.83203125 C-6.87165786 9.49703757 -5.46671273 7.45460827 -3.4375 4.6875 C-2.47650391 3.36298828 -2.47650391 3.36298828 -1.49609375 2.01171875 C-1.00238281 1.34785156 -0.50867188 0.68398437 0 0 Z " fill="#FFFDF6" transform="translate(343,234)"/>
<path d="M0 0 C-0.33 0.99 -0.66 1.98 -1 3 C-2.11375 2.7525 -2.11375 2.7525 -3.25 2.5 C-10.78221345 1.49570487 -18.45947154 0.62236772 -25.25 4.59765625 C-30.30070476 8.64498439 -34.50736853 14.58215864 -35.23535156 21.1105957 C-36.17087232 35.96514777 -36.17087232 35.96514777 -30 49 C-29.48824219 49.63421875 -28.97648438 50.2684375 -28.44921875 50.921875 C-24.10279683 55.12373743 -19.66107707 55.4679441 -13.8125 55.4375 C-9.45853563 55.34896549 -5.25026871 54.99860682 -1 54 C-0.67 54.99 -0.34 55.98 0 57 C-8.76720521 60.13380952 -17.29277247 61.89144329 -26.125 58.02734375 C-33.40306667 54.03956972 -36.98971289 48.64537354 -40 41 C-42.52639933 31.86609471 -42.04632938 19.77199252 -37.58984375 11.328125 C-28.6520995 -2.43477958 -15.24160585 -4.78168027 0 0 Z " fill="#110C10" transform="translate(169,383)"/>
<path d="M0 0 C0.66 0 1.32 0 2 0 C3.57068858 4.23432728 5.13715849 8.47018165 6.69970703 12.70751953 C7.23207236 14.14935584 7.76559627 15.59076492 8.30029297 17.03173828 C9.06781766 19.1007798 9.8311884 21.17131251 10.59375 23.2421875 C10.83436157 23.88807831 11.07497314 24.53396912 11.32287598 25.19943237 C13 29.77225659 13 29.77225659 13 32 C5.08 32 -2.84 32 -11 32 C-7.625 20.75 -7.625 20.75 -5.95703125 16.2109375 C-5.60576172 15.25058594 -5.25449219 14.29023438 -4.89257812 13.30078125 C-4.53615234 12.33527344 -4.17972656 11.36976563 -3.8125 10.375 C-3.44447266 9.37082031 -3.07644531 8.36664063 -2.69726562 7.33203125 C-1.80077369 4.88705325 -0.90165072 2.44307919 0 0 Z " fill="#EEEEEE" transform="translate(254,388)"/>
<path d="M0 0 C9.9 0 19.8 0 30 0 C30 0.99 30 1.98 30 3 C21.42 3 12.84 3 4 3 C4 11.25 4 19.5 4 28 C10.93 28 17.86 28 25 28 C25 28.66 25 29.32 25 30 C18.07 30 11.14 30 4 30 C4 38.91 4 47.82 4 57 C13.24 57 22.48 57 32 57 C32 57.66 32 58.32 32 59 C21.44 59 10.88 59 0 59 C0 39.53 0 20.06 0 0 Z " fill="#060606" transform="translate(402,382)"/>
<path d="M0 0 C1.66474322 1.63676434 3.20669207 3.25262364 4.6875 5.0625 C7.94123451 7.78860189 10.8582457 8.17164914 15 9 C13.88695139 17.1195469 7.57820519 22.8829431 1.48046875 27.90625 C-1.95078156 30.44121065 -4.81206365 30.15228859 -9 30 C-10 29 -10 29 -10.375 26.25 C-10.24245837 17.04782378 -4.66612077 7.68420739 0 0 Z " fill="#FFFDF9" transform="translate(157,327)"/>
<path d="M0 0 C2.65758399 2.65758399 3.28120757 5.2638818 4.5 8.8125 C6.20785678 13.7898036 6.20785678 13.7898036 8.125 18.6875 C9.58662825 22.55037466 9.74240444 25.94237571 9 30 C6.566745 35.38792179 3.43358935 40.06203547 -1 44 C-1.66 44 -2.32 44 -3 44 C-3.20352592 32.49608902 -3.23269076 21.08232724 -2.0625 9.625 C-1.97564941 8.7700293 -1.88879883 7.91505859 -1.79931641 7.03417969 C-1.14268273 1.14268273 -1.14268273 1.14268273 0 0 Z " fill="#FF69C1" transform="translate(105,323)"/>
<path d="M0 0 C1.75 0.8125 1.75 0.8125 2.75 1.8125 C3.73025727 10.96156789 0.51511282 19.21102406 -2.25 27.8125 C-3.70792884 27.86649736 -5.16642712 27.90529177 -6.625 27.9375 C-7.84316406 27.97230469 -7.84316406 27.97230469 -9.0859375 28.0078125 C-11.25 27.8125 -11.25 27.8125 -13.25 25.8125 C-14.75486346 18.54863982 -12.31398425 12.86805571 -9.05078125 6.4765625 C-6.80034269 3.1472803 -4.30855488 -0.35904624 0 0 Z " fill="#FFFDF8" transform="translate(177.25,305.1875)"/>
<path d="M0 0 C4.50144938 2.25072469 6.10770251 4.71856218 8.6875 8.8125 C9.56269036 10.16478265 10.43901721 11.51633036 11.31640625 12.8671875 C11.75871582 13.55264648 12.20102539 14.23810547 12.65673828 14.94433594 C14.75212613 18.15101817 16.93404985 21.29565187 19.125 24.4375 C19.87007813 25.50871094 20.61515625 26.57992188 21.3828125 27.68359375 C21.91648437 28.44800781 22.45015625 29.21242188 23 30 C22.01 31.32 21.02 32.64 20 34 C17.49250203 30.38013325 14.99529185 26.75328923 12.5 23.125 C11.78457031 22.09246094 11.06914062 21.05992187 10.33203125 19.99609375 C9.65527344 19.00996094 8.97851562 18.02382813 8.28125 17.0078125 C7.65283203 16.09660645 7.02441406 15.18540039 6.37695312 14.24658203 C5 12 5 12 5 10 C4.34 10 3.68 10 3 10 C3 26.17 3 42.34 3 59 C2.01 59 1.02 59 0 59 C0 39.53 0 20.06 0 0 Z " fill="#090909" transform="translate(290,382)"/>
<path d="M0 0 C1.63286283 2.44929424 2.52719248 4.1659176 3.47265625 6.87109375 C3.73240234 7.61037109 3.99214844 8.34964844 4.25976562 9.11132812 C4.52466797 9.87896484 4.78957031 10.64660156 5.0625 11.4375 C5.33126953 12.20126953 5.60003906 12.96503906 5.87695312 13.75195312 C7.06235155 17.1485187 8.16676895 20.49749738 9 24 C7.68 24.33 6.36 24.66 5 25 C4.18309823 22.77236012 3.37138128 20.5430514 2.5625 18.3125 C2.33240234 17.68666016 2.10230469 17.06082031 1.86523438 16.41601562 C0.60013222 12.91406618 -0.26435953 9.67820235 -1 6 C-14.365 6.495 -14.365 6.495 -28 7 C-29.98 12.94 -31.96 18.88 -34 25 C-35.65 25 -37.3 25 -39 25 C-36.29351896 15.46013421 -36.29351896 15.46013421 -34.4375 11.3125 C-32.95160302 7.88847653 -31.95521334 4.60041952 -31 1 C-30.34 2.32 -29.68 3.64 -29 5 C-19.43 4.67 -9.86 4.34 0 4 C0 2.68 0 1.36 0 0 Z " fill="#2E2E2E" transform="translate(270,417)"/>
<path d="M0 0 C-0.33 0.99 -0.66 1.98 -1 3 C-2.01513672 2.76603516 -2.01513672 2.76603516 -3.05078125 2.52734375 C-10.87541407 1.12823722 -19.39450023 0.50776608 -26.5625 4.375 C-33.09875381 8.99714288 -36.60351573 15.42025679 -38.375 23.125 C-38.58125 24.40375 -38.7875 25.6825 -39 27 C-39.66 26.67 -40.32 26.34 -41 26 C-40.54744091 17.37016623 -39.90842193 10.48467699 -33.375 4.25 C-23.63330873 -3.63191384 -11.60289368 -3.57012113 0 0 Z " fill="#181818" transform="translate(387,383)"/>
<path d="M0 0 C1.32 0 2.64 0 4 0 C4.13958994 19.36864108 3.80679429 38.64766567 3 58 C2.01 58.495 2.01 58.495 1 59 C1.99 59.33 2.98 59.66 4 60 C2.68 60 1.36 60 0 60 C0 40.2 0 20.4 0 0 Z " fill="#272727" transform="translate(181,382)"/>
<path d="M0 0 C0.99 0.33 1.98 0.66 3 1 C3.81569329 7.19926897 1.12158673 11.84220584 -2 17 C-3.31266518 18.35368596 -4.64567325 19.68799596 -6 21 C-7.29386767 23.2932975 -8.49444807 25.61370857 -9.65625 27.9765625 C-11.19231254 30.2895869 -12.44929889 30.99485083 -15 32 C-11.75121106 20.62923873 -5.91356874 10.18668441 0 0 Z " fill="#FFF4F2" transform="translate(142,268)"/>
<path d="M0 0 C0.99 0.33 1.98 0.66 3 1 C3.71043892 5.8941348 3.98738006 8.5592945 1.13671875 12.71875 C-2.27731772 16.51833232 -5.72220598 20.16641849 -10 23 C-10.66 23 -11.32 23 -12 23 C-11.37021856 18.57473576 -9.68496661 14.88637005 -7.6875 10.9375 C-7.39166016 10.32583984 -7.09582031 9.71417969 -6.79101562 9.08398438 C-4.96940005 5.4446876 -3.04832362 2.69840567 0 0 Z " fill="#FFFBF1" transform="translate(371,313)"/>
<path d="M0 0 C0.33 0.66 0.66 1.32 1 2 C0.33496094 3.87597656 0.33496094 3.87597656 -0.765625 6.140625 C-1.16136719 6.96433594 -1.55710937 7.78804688 -1.96484375 8.63671875 C-2.38894531 9.49910156 -2.81304687 10.36148437 -3.25 11.25 C-3.65863281 12.09691406 -4.06726563 12.94382812 -4.48828125 13.81640625 C-6.19739737 17.35004505 -7.91796389 20.84948158 -9.796875 24.296875 C-11.08105062 27.18210074 -11.0601721 28.8961227 -11 32 C-11.953125 34.32421875 -11.953125 34.32421875 -13.25 36.6875 C-15.87771393 41.66593238 -17.99789857 46.74308564 -20 52 C-20.66 52 -21.32 52 -22 52 C-22.29003906 53.12148438 -22.29003906 53.12148438 -22.5859375 54.265625 C-22.84632813 55.25046875 -23.10671875 56.2353125 -23.375 57.25 C-23.63023437 58.22453125 -23.88546875 59.1990625 -24.1484375 60.203125 C-24.89598509 62.65837303 -25.77123817 64.75617405 -27 67 C-28.46141834 63.16991847 -27.49206352 60.90836578 -26.0078125 57.1875 C-25.55438477 56.03910645 -25.10095703 54.89071289 -24.63378906 53.70751953 C-24.13151201 52.4714143 -23.62856776 51.23557999 -23.125 50 C-22.61646513 48.73176713 -22.10833008 47.46337387 -21.60058594 46.19482422 C-5.03249906 5.03249906 -5.03249906 5.03249906 0 0 Z " fill="#FFE990" transform="translate(283,277)"/>
<path d="M0 0 C3.5 -0.375 3.5 -0.375 7 0 C9.67927341 4.01891012 9.15601248 6.24161923 9 11 C8.34 11 7.68 11 7 11 C7 11.66 7 12.32 7 13 C4.1875 13.25 4.1875 13.25 1 13 C-1.611137 10.7370146 -1.96165814 9.37575018 -2.3125 5.9375 C-2 3 -2 3 0 0 Z " fill="#A9A9A9" transform="translate(187,467)"/>
<path d="M0 0 C0.33 0.66 0.66 1.32 1 2 C-0.10473633 4.56835938 -0.10473633 4.56835938 -1.83203125 7.84375 C-2.46856392 9.07116865 -3.10452532 10.29888368 -3.73999023 11.52685547 C-4.07860077 12.17507263 -4.4172113 12.82328979 -4.76608276 13.4911499 C-12.30847745 27.9705944 -18.52232245 42.60743106 -24 58 C-25.45945129 53.39402529 -24.00041588 49.90310978 -22.4375 45.5 C-22.13739014 44.64647949 -21.83728027 43.79295898 -21.52807617 42.91357422 C-18.50500005 34.72037964 -14.72645422 26.91907206 -10.8125 19.125 C-10.50722382 18.51599854 -10.20194763 17.90699707 -9.88742065 17.27954102 C-6.86820279 11.28539997 -3.79413952 5.53344184 0 0 Z " fill="#FFF8E1" transform="translate(330,250)"/>
<path d="M0 0 C2.16874252 0.50603992 3.99967627 0.99983813 6 2 C8.61518725 2.09868631 11.19784734 2.13896965 13.8125 2.125 C14.88081055 2.13080078 14.88081055 2.13080078 15.97070312 2.13671875 C19.77280929 2.12968433 23.30487007 1.914708 27 1 C27.33 1.99 27.66 2.98 28 4 C17.89660333 7.6114269 9.92041835 8.40907482 0 4 C0 2.68 0 1.36 0 0 Z " fill="#151515" transform="translate(141,436)"/>
<path d="M0 0 C5.61 0 11.22 0 17 0 C17 8.91 17 17.82 17 27 C16.01 26.34 15.02 25.68 14 25 C13.65942383 22.75341797 13.65942383 22.75341797 13.70703125 19.9921875 C13.71669922 19.00605469 13.72636719 18.01992188 13.73632812 17.00390625 C13.76146484 15.97136719 13.78660156 14.93882812 13.8125 13.875 C13.82603516 12.83472656 13.83957031 11.79445313 13.85351562 10.72265625 C13.88894367 8.14821821 13.94275188 5.57404526 14 3 C9.38 3 4.76 3 0 3 C0 2.01 0 1.02 0 0 Z " fill="#090909" transform="translate(370,412)"/>
<path d="M0 0 C1.98 0 3.96 0 6 0 C6.75241109 3.65456815 7.40049704 7.31733897 8 11 C5 13 5 13 0 13 C0 8.71 0 4.42 0 0 Z " fill="#666666" transform="translate(96,467)"/>
<path d="M0 0 C0 4.04803235 -1.67181225 7.13190387 -3.3125 10.75 C-3.9338246 12.14052187 -4.55492014 13.53114612 -5.17578125 14.921875 C-5.4795166 15.59798828 -5.78325195 16.27410156 -6.09619141 16.97070312 C-7.43051259 19.96661821 -8.71621656 22.98212139 -10 26 C-10.33 26 -10.66 26 -11 26 C-11.48072236 18.73575101 -11.38906614 13.02073627 -7 7 C-4.789409 4.51959382 -2.47030736 2.220501 0 0 Z " fill="#FFF6F2" transform="translate(121,273)"/>
<path d="M0 0 C0.66 0.99 1.32 1.98 2 3 C1.67 4.65 1.34 6.3 1 8 C8.92 8 16.84 8 25 8 C25.33 7.01 25.66 6.02 26 5 C26.66 4.67 27.32 4.34 28 4 C28 5.65 28 7.3 28 9 C25.23382437 10.38308781 22.98982 10.11210196 19.8984375 10.09765625 C18.68671875 10.09443359 17.475 10.09121094 16.2265625 10.08789062 C14.95554687 10.07951172 13.68453125 10.07113281 12.375 10.0625 C11.09625 10.05798828 9.8175 10.05347656 8.5 10.04882812 C5.33328708 10.03701203 2.16666644 10.02053815 -1 10 C-1.99030231 5.87951136 -1.87125129 3.85257619 0 0 Z " fill="#080808" transform="translate(242,412)"/>
<path d="M0 0 C0.33 0 0.66 0 1 0 C1.68844865 8.2486348 1.50937778 13.77370349 -3.58984375 20.48828125 C-4.05519531 20.98714844 -4.52054687 21.48601562 -5 22 C-5.33 22 -5.66 22 -6 22 C-5.91224337 19.79095369 -5.80405633 17.58271407 -5.6875 15.375 C-5.62949219 14.14523437 -5.57148438 12.91546875 -5.51171875 11.6484375 C-4.84260719 6.87782531 -3.41943206 3.41943206 0 0 Z " fill="#FF70C3" transform="translate(448,314)"/>
<path d="M0 0 C2.33294775 -0.04241723 4.66702567 -0.04092937 7 0 C8 1 8 1 8.125 3.375 C8 6 8 6 7 9 C7.38932856 11.14255793 7.38932856 11.14255793 8 13 C6.5 11.625 6.5 11.625 5 10 C5 9.34 5 8.68 5 8 C4.01 8 3.02 8 2 8 C2 9.65 2 11.3 2 13 C1.34 13 0.68 13 0 13 C0 8.71 0 4.42 0 0 Z " fill="#4D2D42" transform="translate(388,467)"/>
<path d="M0 0 C2.6687814 2.6687814 3.32362727 5.31740129 4.5625 8.875 C4.99691406 10.10992187 5.43132812 11.34484375 5.87890625 12.6171875 C6.69472241 15.0788488 7.43506147 17.47364567 8 20 C6.68 20.33 5.36 20.66 4 21 C3.15450362 18.79567015 2.32357186 16.58751467 1.5 14.375 C0.80390625 12.53035156 0.80390625 12.53035156 0.09375 10.6484375 C-0.94733113 7.17568831 -1.30211221 4.59297731 -1 1 C-0.67 0.67 -0.34 0.34 0 0 Z " fill="#121212" transform="translate(271,421)"/>
<path d="M0 0 C0.66 0 1.32 0 2 0 C2 1.98 2 3.96 2 6 C3.98 6 5.96 6 8 6 C8 4.02 8 2.04 8 0 C8.66 0 9.32 0 10 0 C10 4.62 10 9.24 10 14 C9.34 14 8.68 14 8 14 C8 12.02 8 10.04 8 8 C6.02 8 4.04 8 2 8 C2 9.98 2 11.96 2 14 C1.34 14 0.68 14 0 14 C0 9.38 0 4.76 0 0 Z " fill="#606060" transform="translate(257,466)"/>
<path d="M0 0 C0.99 0 1.98 0 3 0 C3.67057887 1.7902061 4.3363469 3.58221489 5 5.375 C5.556875 6.87160156 5.556875 6.87160156 6.125 8.3984375 C7 11 7 11 7 13 C6.34 13 5.68 13 5 13 C5 12.01 5 11.02 5 10 C0.39257135 11.21044132 0.39257135 11.21044132 -4 13 C-3.52343588 11.20763933 -3.04366502 9.41613103 -2.5625 7.625 C-2.29566406 6.62726563 -2.02882812 5.62953125 -1.75390625 4.6015625 C-1 2 -1 2 0 0 Z " fill="#8A8A8A" transform="translate(222,467)"/>
<path d="M0 0 C0.99 0.33 1.98 0.66 3 1 C2.67 1.66 2.34 2.32 2 3 C1.88082832 4.72527121 1.82282674 6.45492898 1.79467773 8.18408203 C1.77473251 9.26505157 1.75478729 10.34602112 1.73423767 11.45974731 C1.71752518 12.63060883 1.70081268 13.80147034 1.68359375 15.0078125 C1.66281265 16.20356903 1.64203156 17.39932556 1.62062073 18.63131714 C1.55507711 22.46248464 1.49621782 26.29372238 1.4375 30.125 C1.39431937 32.71745527 1.35070523 35.30990336 1.30664062 37.90234375 C1.19939081 44.26815427 1.0976334 50.63403513 1 57 C0.67 57 0.34 57 0 57 C0 38.19 0 19.38 0 0 Z " fill="#252525" transform="translate(291,383)"/>
<path d="M0 0 C-0.33 0.99 -0.66 1.98 -1 3 C-1.66644531 2.84402344 -2.33289063 2.68804687 -3.01953125 2.52734375 C-7.23697479 1.78113814 -11.46077765 1.64953109 -15.73632812 1.48242188 C-20.78376116 1.21623884 -20.78376116 1.21623884 -23 -1 C-15.57982365 -3.47339212 -7.3372924 -2.25762843 0 0 Z " fill="#0C0C0C" transform="translate(387,383)"/>
<path d="M0 0 C0.99 0.33 1.98 0.66 3 1 C3 1.99 3 2.98 3 4 C4.55460937 3.96519531 4.55460937 3.96519531 6.140625 3.9296875 C7.51040944 3.91092333 8.8802017 3.89272382 10.25 3.875 C10.93191406 3.85824219 11.61382812 3.84148437 12.31640625 3.82421875 C16.0608235 3.78786518 18.82352727 3.92055651 22 6 C16.17156469 7.94281177 9.76455439 8.02550267 3.98828125 5.8828125 C1.59326004 4.67334387 -0.71966002 3.41259998 -3 2 C-2.01 1.34 -1.02 0.68 0 0 Z " fill="#1D1D1D" transform="translate(358,436)"/>
<path d="M0 0 C0.66 0 1.32 0 2 0 C2.53229326 1.26607607 3.05044544 2.53810412 3.5625 3.8125 C3.85253906 4.52019531 4.14257812 5.22789062 4.44140625 5.95703125 C5 8 5 8 4 11 C4 10.34 4 9.68 4 9 C2.02 9 0.04 9 -2 9 C-2.33 10.32 -2.66 11.64 -3 13 C-3.66 13 -4.32 13 -5 13 C-4.54554036 11.58208592 -4.08625056 10.16571954 -3.625 8.75 C-3.24214844 7.56664062 -3.24214844 7.56664062 -2.8515625 6.359375 C-2.04826333 4.13372042 -1.10288338 2.09068328 0 0 Z " fill="#8D8D8D" transform="translate(293,467)"/>
<path d="M0 0 C1.98 0 3.96 0 6 0 C7 1 7 1 7.25 3.375 C7 6 7 6 5.5 7.8125 C5.005 8.204375 4.51 8.59625 4 9 C3.01 8.67 2.02 8.34 1 8 C0.67 9.32 0.34 10.64 0 12 C0 8.04 0 4.08 0 0 Z " fill="#1C1C1C" transform="translate(204,467)"/>
<path d="M0 0 C0.99 0.33 1.98 0.66 3 1 C2.67 7.6 2.34 14.2 2 21 C-1.62239624 17.37760376 -1.50396455 16.04613193 -1.8125 11.0625 C-1.90144531 9.83660156 -1.99039063 8.61070312 -2.08203125 7.34765625 C-2.00410364 4.16746742 -1.70277607 2.62319556 0 0 Z " fill="#2F2F2F" transform="translate(131,396)"/>
<path d="M0 0 C2.64 0 5.28 0 8 0 C8 0.66 8 1.32 8 2 C6.02 2 4.04 2 2 2 C2 5.3 2 8.6 2 12 C3.98 12 5.96 12 8 12 C8 12.66 8 13.32 8 14 C5.36 14 2.72 14 0 14 C0 9.38 0 4.76 0 0 Z " fill="#666666" transform="translate(275,466)"/>
<path d="M0 0 C0.33 0 0.66 0 1 0 C1 1.65 1 3.3 1 5 C3.31 5 5.62 5 8 5 C8 3.35 8 1.7 8 0 C8.66 0 9.32 0 10 0 C10 4.29 10 8.58 10 13 C9.34 13 8.68 13 8 13 C8 11.02 8 9.04 8 7 C5.69 7 3.38 7 1 7 C1 8.65 1 10.3 1 12 C0.67 12 0.34 12 0 12 C0 8.04 0 4.08 0 0 Z " fill="#4E4E4E" transform="translate(126,467)"/>
<path d="M0 0 C3.63559661 3.43361902 6.36113346 6.7973607 9 11 C8.67 11.66 8.34 12.32 8 13 C6.125 12.8125 6.125 12.8125 4 12 C3.29788106 10.34795544 2.63028587 8.68076231 2 7 C1.01 6.67 0.02 6.34 -1 6 C-1.042721 4.33388095 -1.04063832 2.66617115 -1 1 C-0.67 0.67 -0.34 0.34 0 0 Z " fill="#141414" transform="translate(293,385)"/>
<path d="M0 0 C2.31 0 4.62 0 7 0 C7 0.33 7 0.66 7 1 C5.35 1 3.7 1 2 1 C2 2.32 2 3.64 2 5 C3.32 5 4.64 5 6 5 C6 5.66 6 6.32 6 7 C4.68 7 3.36 7 2 7 C2 8.32 2 9.64 2 11 C3.98 11 5.96 11 8 11 C8 11.66 8 12.32 8 13 C5.36 13 2.72 13 0 13 C0 8.71 0 4.42 0 0 Z " fill="#5F5F5F" transform="translate(111,467)"/>
<path d="M0 0 C0.33 0 0.66 0 1 0 C0.57758475 5.6247925 0.02376184 10.68762518 -2 16 C-2.34574769 17.33016819 -2.68141166 18.66306681 -3 20 C-3.62529897 14.9752761 -4.13012092 10.07471573 -4 5 C-3.34 4.67 -2.68 4.34 -2 4 C-0.86649466 1.98330173 -0.86649466 1.98330173 0 0 Z " fill="#FFEEB1" transform="translate(346,342)"/>
<path d="M0 0 C1.29560612 3.88681835 0.43927615 5.73830766 -0.75 9.625 C-1.09546875 10.79289062 -1.4409375 11.96078125 -1.796875 13.1640625 C-2.39242188 14.56785156 -2.39242188 14.56785156 -3 16 C-3.99 16.33 -4.98 16.66 -6 17 C-6.73266737 19.04188538 -6.73266737 19.04188538 -7.0625 21.4375 C-7.7972973 25.7972973 -7.7972973 25.7972973 -10 28 C-9.48594831 23.03083364 -8.76615118 18.70973649 -7 14 C-6.34 14 -5.68 14 -5 14 C-3.35 9.38 -1.7 4.76 0 0 Z " fill="#FFE46E" transform="translate(261,329)"/>
<path d="M0 0 C2.97 0 5.94 0 9 0 C8.01 0.33 7.02 0.66 6 1 C6 4.96 6 8.92 6 13 C5.01 13 4.02 13 3 13 C3 9.04 3 5.08 3 1 C2.01 0.67 1.02 0.34 0 0 Z " fill="#757575" transform="translate(317,467)"/>
<path d="M0 0 C0.66 0.33 1.32 0.66 2 1 C1.4157372 5.79095495 -0.10737851 9.58388318 -2 14 C-2.39764263 15.98821313 -2.75455166 17.98732362 -3 20 C-3.66 19.67 -4.32 19.34 -5 19 C-4.22519084 4.22519084 -4.22519084 4.22519084 0 0 Z " fill="#0F0F0F" transform="translate(351,390)"/>
<path d="M0 0 C2.16874252 0.50603992 3.99967627 0.99983813 6 2 C8.0374763 2.22858114 10.08040303 2.41024278 12.125 2.5625 C13.76855469 2.68818359 13.76855469 2.68818359 15.4453125 2.81640625 C16.28835937 2.87699219 17.13140625 2.93757813 18 3 C18 3.33 18 3.66 18 4 C15.77497898 4.41850869 13.54467032 4.80897163 11.3125 5.1875 C9.45044922 5.51814453 9.45044922 5.51814453 7.55078125 5.85546875 C3.60016686 6.01627484 2.09905095 5.35243447 -1 3 C-0.67 2.01 -0.34 1.02 0 0 Z " fill="#282728" transform="translate(141,436)"/>
<path d="M0 0 C0.66 0 1.32 0 2 0 C2.125 7.625 2.125 7.625 1 11 C-0.65 11 -2.3 11 -4 11 C-3.5247412 9.35303396 -3.04468109 7.70745272 -2.5625 6.0625 C-2.29566406 5.14597656 -2.02882812 4.22945313 -1.75390625 3.28515625 C-1 1 -1 1 0 0 Z " fill="#1E1E1E" transform="translate(235,431)"/>
<path d="M0 0 C2.79163712 2.40768703 3.89717557 4.76146616 5.1875 8.1875 C5.53167969 9.08855469 5.87585938 9.98960937 6.23046875 10.91796875 C6.48441406 11.60503906 6.73835938 12.29210937 7 13 C6.01 13.495 6.01 13.495 5 14 C3.96097967 12.61765122 2.94436554 11.21844209 1.9375 9.8125 C1.36902344 9.03519531 0.80054688 8.25789063 0.21484375 7.45703125 C-1.25702664 4.48016155 -0.96747771 3.112514 0 0 Z M6 5 C6.33 5 6.66 5 7 5 C7 6.65 7 8.3 7 10 C6.67 10 6.34 10 6 10 C6 8.35 6 6.7 6 5 Z " fill="#101010" transform="translate(321,426)"/>
<path d="M0 0 C0.66 0.66 1.32 1.32 2 2 C1.04367001 3.29315061 0.08486149 4.58446853 -0.875 5.875 C-1.40867188 6.59429687 -1.94234375 7.31359375 -2.4921875 8.0546875 C-4 10 -4 10 -6 12 C-6 11.34 -6 10.68 -6 10 C-6.66 10 -7.32 10 -8 10 C-7.875 7.75 -7.875 7.75 -7 5 C-4 2.75 -4 2.75 -1 1 C-0.67 0.67 -0.34 0.34 0 0 Z " fill="#0C0C0C" transform="translate(140,387)"/>
<path d="M0 0 C0.33 0.99 0.66 1.98 1 3 C0.04668289 4.32783454 -0.90878594 5.65417665 -1.875 6.97265625 C-4.2487242 11.25030506 -4.98564138 16.25095735 -6 21 C-6.33 21 -6.66 21 -7 21 C-7.7275979 14.17443872 -7.90036698 9.3013684 -3.5 3.75 C-2.36066927 2.47503466 -1.2028987 1.21517317 0 0 Z " fill="#FFF2E2" transform="translate(457,322)"/>
<path d="M0 0 C0.66 0 1.32 0 2 0 C2 3.63 2 7.26 2 11 C3.65 11 5.3 11 7 11 C7 11.66 7 12.32 7 13 C4.69 13 2.38 13 0 13 C0 8.71 0 4.42 0 0 Z " fill="#6F6F6F" transform="translate(306,467)"/>
<path d="M0 0 C0.66 0 1.32 0 2 0 C2 3.96 2 7.92 2 12 C3.32 12 4.64 12 6 12 C6 12.66 6 13.32 6 14 C4.02 14 2.04 14 0 14 C0 9.38 0 4.76 0 0 Z " fill="#6A6A6A" transform="translate(236,466)"/>
<path d="M0 0 C2.25998595 3.59462331 2.20868087 6.56595675 2.125 10.75 C2.10695313 11.92046875 2.08890625 13.0909375 2.0703125 14.296875 C2.03550781 15.63492187 2.03550781 15.63492187 2 17 C1.34 17 0.68 17 0 17 C-1.04792525 13.56513389 -1.13372185 10.39281963 -1.125 6.8125 C-1.12757813 5.74644531 -1.13015625 4.68039062 -1.1328125 3.58203125 C-1 1 -1 1 0 0 Z " fill="#1A1A1A" transform="translate(346,406)"/>
<path d="M0 0 C0.66 0.99 1.32 1.98 2 3 C1.58447266 4.99291992 1.58447266 4.99291992 0.6640625 7.23046875 C0.34179688 8.03291016 0.01953125 8.83535156 -0.3125 9.66210938 C-0.8384375 10.91217773 -0.8384375 10.91217773 -1.375 12.1875 C-1.71789062 13.03248047 -2.06078125 13.87746094 -2.4140625 14.74804688 C-3.26394691 16.83734605 -4.12622936 18.92060303 -5 21 C-6.05711427 17.80042565 -5.95184778 16.03354912 -4.78515625 12.890625 C-4.51123047 12.13652344 -4.23730469 11.38242187 -3.95507812 10.60546875 C-3.51325195 9.43951172 -3.51325195 9.43951172 -3.0625 8.25 C-2.77181641 7.45722656 -2.48113281 6.66445313 -2.18164062 5.84765625 C-1.46405186 3.89487371 -0.73329094 1.94694059 0 0 Z " fill="#FFF2C4" transform="translate(311,287)"/>
<path d="M0 0 C0.06058594 0.68707031 0.12117188 1.37414062 0.18359375 2.08203125 C0.26738281 2.98308594 0.35117187 3.88414062 0.4375 4.8125 C0.51871094 5.70582031 0.59992188 6.59914063 0.68359375 7.51953125 C0.93489767 10.12743559 0.93489767 10.12743559 2 13 C1.01 13.495 1.01 13.495 0 14 C-3.36055646 9.51925805 -3.27429625 6.39449293 -3 1 C-1 0 -1 0 0 0 Z " fill="#FFE377" transform="translate(395,361)"/>
<path d="M0 0 C0.66 0.33 1.32 0.66 2 1 C0.36041242 6.23272633 -1.38952035 11.15196636 -4 16 C-4.66 15.34 -5.32 14.68 -6 14 C-4.02 9.38 -2.04 4.76 0 0 Z " fill="#FFE682" transform="translate(401,339)"/>
<path d="M0 0 C0.33 0 0.66 0 1 0 C0.85936865 2.29199177 0.71234057 4.58359186 0.5625 6.875 C0.48128906 8.15117187 0.40007812 9.42734375 0.31640625 10.7421875 C0 14 0 14 -1 16 C-1.66 16 -2.32 16 -3 16 C-2.88487847 14.27014758 -2.75744323 12.54111249 -2.625 10.8125 C-2.55539062 9.84957031 -2.48578125 8.88664062 -2.4140625 7.89453125 C-1.99784147 4.98491062 -1.20125904 2.67109226 0 0 Z " fill="#FFEFE4" transform="translate(442,323)"/>
<path d="M0 0 C-0.33 0.99 -0.66 1.98 -1 3 C-6.61 2.34 -12.22 1.68 -18 1 C-18 0.67 -18 0.34 -18 0 C-11.74692761 -0.83288874 -6.23182639 -1.03863773 0 0 Z " fill="#0C0C0C" transform="translate(169,383)"/>
<path d="M0 0 C0.33 0.66 0.66 1.32 1 2 C2.98 1.67 4.96 1.34 7 1 C7.66 2.98 8.32 4.96 9 7 C8.34 7 7.68 7 7 7 C7 6.01 7 5.02 7 4 C2.39257135 5.21044132 2.39257135 5.21044132 -2 7 C-1.34 4.69 -0.68 2.38 0 0 Z " fill="#5A5A5A" transform="translate(220,473)"/>
<path d="M0 0 C4 2 4 2 6 4 C5.625 7.125 5.625 7.125 5 10 C4.34 10 3.68 10 3 10 C2.01 6.7 1.02 3.4 0 0 Z " fill="#EE5DB8" transform="translate(160,467)"/>
<path d="M0 0 C-0.6875 1.9375 -0.6875 1.9375 -2 4 C-4.4375 4.625 -4.4375 4.625 -7 5 C-7.99 5.66 -8.98 6.32 -10 7 C-10 4 -10 4 -7.8125 1.8125 C-4.80799236 -0.12373826 -3.4826218 -0.39801392 0 0 Z " fill="#222222" transform="translate(146,384)"/>
<path d="M0 0 C0.33 0.66 0.66 1.32 1 2 C0.67 2.66 0.34 3.32 0 4 C-0.22467831 5.53668865 -0.40796805 7.07968054 -0.5625 8.625 C-0.64628906 9.44226563 -0.73007813 10.25953125 -0.81640625 11.1015625 C-0.87699219 11.72804688 -0.93757812 12.35453125 -1 13 C-1.33 13 -1.66 13 -2 13 C-2.33 11.02 -2.66 9.04 -3 7 C-4.32 7.99 -5.64 8.98 -7 10 C-5.33248852 6.05860922 -2.77289351 3.2107188 0 0 Z " fill="#FFF5D2" transform="translate(220,338)"/>
<path d="M0 0 C0.66 0 1.32 0 2 0 C1.67 1.98 1.34 3.96 1 6 C0.01 6.33 -0.98 6.66 -2 7 C-3.22969878 10.51190809 -3.22969878 10.51190809 -4 14 C-4.6875 12.375 -4.6875 12.375 -5 10 C-3.5625 6.75 -3.5625 6.75 -2 4 C-1.34 4 -0.68 4 0 4 C0 2.68 0 1.36 0 0 Z " fill="#FFE88D" transform="translate(236,322)"/>
<path d="M0 0 C0.99 0.33 1.98 0.66 3 1 C2.34 3.64 1.68 6.28 1 9 C0.34 9 -0.32 9 -1 9 C-1.80967438 6.08517222 -2.21845993 4.53886783 -1.0625 1.6875 C-0.711875 1.130625 -0.36125 0.57375 0 0 Z " fill="#222222" transform="translate(131,396)"/>
<path d="M0 0 C0.66 0.99 1.32 1.98 2 3 C1.5390625 5.04296875 1.5390625 5.04296875 0.625 7.1875 C0.32851563 7.90292969 0.03203125 8.61835938 -0.2734375 9.35546875 C-0.51320313 9.89816406 -0.75296875 10.44085938 -1 11 C-1.66 11 -2.32 11 -3 11 C-3.66 11.66 -4.32 12.32 -5 13 C-4.39254603 8.14036821 -2.27241033 4.2594482 0 0 Z " fill="#FFEA99" transform="translate(461,333)"/>
<path d="M0 0 C5.28 0.66 10.56 1.32 16 2 C16 2.33 16 2.66 16 3 C14.06325815 3.19517554 12.12555991 3.38087873 10.1875 3.5625 C9.10855469 3.66691406 8.02960938 3.77132813 6.91796875 3.87890625 C4 4 4 4 1 3 C0.67 2.01 0.34 1.02 0 0 Z " fill="#2C2C2C" transform="translate(360,437)"/>
<path d="M0 0 C2 3 2 3 1.7578125 5.26171875 C1.54898438 6.06222656 1.34015625 6.86273438 1.125 7.6875 C0.92132813 8.49574219 0.71765625 9.30398438 0.5078125 10.13671875 C0.25644531 11.05904297 0.25644531 11.05904297 0 12 C-2.12466485 8.23909901 -2.01055246 6.22594667 -1 2 C-0.67 1.34 -0.34 0.68 0 0 Z " fill="#0B0B0B" transform="translate(238,423)"/>
<path d="M0 0 C1.32 0 2.64 0 4 0 C4 1.65 4 3.3 4 5 C2.35 5 0.7 5 -1 5 C-0.67 3.35 -0.34 1.7 0 0 Z " fill="#0D0C06" transform="translate(253,382)"/>
<path d="M0 0 C2.475 0.495 2.475 0.495 5 1 C4.67 2.32 4.34 3.64 4 5 C2.68 5 1.36 5 0 5 C0 3.35 0 1.7 0 0 Z " fill="#EEEEEE" transform="translate(205,468)"/>
<path d="M0 0 C1 2 1 2 0.44140625 4.1640625 C0.15136719 4.97617187 -0.13867188 5.78828125 -0.4375 6.625 C-0.72496094 7.44226563 -1.01242188 8.25953125 -1.30859375 9.1015625 C-1.53675781 9.72804688 -1.76492187 10.35453125 -2 11 C-2.66 10.01 -3.32 9.02 -4 8 C-3.25 4.375 -3.25 4.375 -2 1 C-1.34 0.67 -0.68 0.34 0 0 Z " fill="#282828" transform="translate(246,404)"/>
<path d="M0 0 C0.66 0.99 1.32 1.98 2 3 C1.67 3.99 1.34 4.98 1 6 C1 5.34 1 4.68 1 4 C-0.98 4 -2.96 4 -5 4 C-5.33 5.32 -5.66 6.64 -6 8 C-6.66 8 -7.32 8 -8 8 C-7.34 6.35 -6.68 4.7 -6 3 C-4.02 3 -2.04 3 0 3 C0 2.01 0 1.02 0 0 Z " fill="#393939" transform="translate(296,472)"/>
<path d="M0 0 C1.98 0 3.96 0 6 0 C6 0.66 6 1.32 6 2 C4.68 2.33 3.36 2.66 2 3 C2 3.99 2 4.98 2 6 C1.01 5.67 0.02 5.34 -1 5 C-0.67 3.35 -0.34 1.7 0 0 Z " fill="#6B6B6B" transform="translate(460,467)"/>
<path d="M0 0 C0 0.99 0 1.98 0 3 C0.99 3 1.98 3 3 3 C3 3.66 3 4.32 3 5 C-0.77545388 3.90931332 -3.47043472 3.0916909 -6 0 C-3 -1 -3 -1 0 0 Z " fill="#242424" transform="translate(361,437)"/>
<path d="M0 0 C1.9375 0.375 1.9375 0.375 4 1 C4.33 1.66 4.66 2.32 5 3 C4.01 4.32 3.02 5.64 2 7 C0 4 0 4 0 0 Z " fill="#1D1D1D" transform="translate(317,423)"/>
<path d="M0 0 C1.65 0 3.3 0 5 0 C5 1.32 5 2.64 5 4 C3.35 4 1.7 4 0 4 C0 2.68 0 1.36 0 0 Z " fill="#F0F0F0" transform="translate(97,474)"/>
<path d="M0 0 C1.32 0 2.64 0 4 0 C4 1.65 4 3.3 4 5 C2.68 5 1.36 5 0 5 C0 3.35 0 1.7 0 0 Z " fill="#F6CEE8" transform="translate(390,468)"/>
<path d="M0 0 C2.35953094 2.35953094 2.49141413 3.77895617 3 7 C1.35 7 -0.3 7 -2 7 C-1.34 4.69 -0.68 2.38 0 0 Z " fill="#404040" transform="translate(233,435)"/>
<path d="M0 0 C0.268125 0.639375 0.53625 1.27875 0.8125 1.9375 C1.88667752 4.33131686 1.88667752 4.33131686 5 5 C3.625 6.5 3.625 6.5 2 8 C1.34 8 0.68 8 0 8 C-0.79953138 4.71303767 -1.09658936 3.28976808 0 0 Z " fill="#252525" transform="translate(239,418)"/>
<path d="M0 0 C0.99 0.33 1.98 0.66 3 1 C4.1875 4.5625 4.1875 4.5625 5 8 C4.34 8.66 3.68 9.32 3 10 C1.64560332 7.29120665 1.93498549 4.99066732 2 2 C1.34 2 0.68 2 0 2 C0 1.34 0 0.68 0 0 Z " fill="#282828" transform="translate(259,393)"/>
<path d="M0 0 C1.485 0.99 1.485 0.99 3 2 C3 3.32 3 4.64 3 6 C1.68 6 0.36 6 -1 6 C-1.042721 4.33388095 -1.04063832 2.66617115 -1 1 C-0.67 0.67 -0.34 0.34 0 0 Z " fill="#0C0C0C" transform="translate(293,385)"/>
<path d="M0 0 C0.33 0 0.66 0 1 0 C1.41176754 3.60296594 1.1535853 4.78402067 -1 7.8125 C-1.66 8.534375 -2.32 9.25625 -3 10 C-2.25 2.25 -2.25 2.25 0 0 Z " fill="#FF61C0" transform="translate(447,315)"/>
<path d="M0 0 C1.32 0.33 2.64 0.66 4 1 C4.33 2.32 4.66 3.64 5 5 C3.68 4.67 2.36 4.34 1 4 C0.67 2.68 0.34 1.36 0 0 Z " fill="#FF75CA" transform="translate(419,262)"/>
<path d="M0 0 C2 3 2 3 2 6 C1.34 6 0.68 6 0 6 C0 6.66 0 7.32 0 8 C-0.66 8 -1.32 8 -2 8 C-1.125 2.25 -1.125 2.25 0 0 Z " fill="#0A0A0A" transform="translate(242,412)"/>
<path d="M0 0 C0.99 0 1.98 0 3 0 C3.625 2.3125 3.625 2.3125 4 5 C3.01 6.485 3.01 6.485 2 8 C0.74335022 5.09399739 0 3.20395416 0 0 Z " fill="#0A0A0A" transform="translate(261,401)"/>
<path d="M0 0 C0.33 0.66 0.66 1.32 1 2 C-1.0140476 5.0210714 -2.63279613 6.60667426 -6 8 C-4.55746343 4.63408134 -2.66735273 2.48952921 0 0 Z " fill="#FFF9E7" transform="translate(326,313)"/>
<path d="M0 0 C1.485 0.99 1.485 0.99 3 2 C3.1875 5.625 3.1875 5.625 3 9 C1.5 7.875 1.5 7.875 0 6 C-0.1875 2.8125 -0.1875 2.8125 0 0 Z " fill="#121212" transform="translate(306,404)"/>
<path d="M0 0 C2.15377564 2.62198774 3.40072174 4.64404172 4 8 C3.01 7.67 2.02 7.34 1 7 C-0.1875 3.9375 -0.1875 3.9375 -1 1 C-0.67 0.67 -0.34 0.34 0 0 Z " fill="#FFAF8A" transform="translate(114,311)"/>
</svg>
